<svg width="24" height="24" xmlns="http://www.w3.org/2000/svg"><g fill-rule="evenodd" opacity=".6"><path d="M11.703 15.233l.634-2.4 2.48-.853-.556-1.666-1.408.496 1.369-5.276h-3.848l-1.825 6.764-1.924.654.555 1.666.813-.278-.952 3.491h10.057l.436-2.598z"/><path d="M12 21.917c-5.477 0-9.917-4.44-9.917-9.917 0-5.477 4.44-9.917 9.917-9.917 5.477 0 9.917 4.44 9.917 9.917 0 5.477-4.44 9.917-9.917 9.917M12 0C5.373 0 0 5.372 0 12c0 6.627 5.373 12 12 12s12-5.373 12-12c0-6.628-5.373-12-12-12"/></g></svg>