<?xml version="1.0" encoding="UTF-8"?>
<svg width="33px" height="25px" viewBox="0 0 33 25" version="1.1" xmlns="http://www.w3.org/2000/svg" xmlns:xlink="http://www.w3.org/1999/xlink">
    <!-- Generator: Sketch 46.2 (44496) - http://www.bohemiancoding.com/sketch -->
    <title>envelope</title>
    <desc>Created with Sketch.</desc>
    <defs></defs>
    <g id="Welcome" stroke="none" stroke-width="1" fill="none" fill-rule="evenodd">
        <g id="assets" transform="translate(-451.000000, -4291.000000)" fill-rule="nonzero" fill="#788089">
            <g id="envelope" transform="translate(451.000000, 4291.000000)">
                <path d="M28.9714294,0 L4.0353794,0 C1.80943408,0 0,1.80125068 0,4.01712887 L0,20.9828711 C0,23.1987493 1.80943408,25 4.0353794,25 L28.9646013,25 C31.1905467,25 32.9999807,23.1987493 32.9999807,20.9828711 L32.9999807,4.02392605 C33.0068088,1.80804785 31.1973747,0 28.9714294,0 Z M31.1632344,20.9828711 C31.1632344,22.1859706 30.1799948,23.1647635 28.9714294,23.1647635 L4.0353794,23.1647635 C2.82681399,23.1647635 1.84357434,22.1859706 1.84357434,20.9828711 L1.84357434,4.02392605 C1.84357434,2.82082654 2.82681399,1.84203371 4.0353794,1.84203371 L28.9646013,1.84203371 C30.1731667,1.84203371 31.1564064,2.82082654 31.1564064,4.02392605 L31.1564064,20.9828711 L31.1632344,20.9828711 Z" id="Shape"></path>
                <path d="M20.739794,12.7847847 L28.6846346,5.60233757 C29.0543183,5.26354289 29.087926,4.68759193 28.7518498,4.3081419 C28.4157736,3.93546775 27.8444441,3.90158828 27.4680388,4.24038296 L16.5119558,14.1535152 L14.3745113,12.2291615 C14.3677898,12.2223856 14.3610683,12.2156097 14.3610683,12.2088338 C14.3140176,12.1614025 14.266967,12.1207472 14.2131948,12.0800918 L5.51554355,4.23360707 C5.13913824,3.89481239 4.56780876,3.92869186 4.23173259,4.3081419 C3.89565642,4.68759193 3.92926404,5.26354289 4.30566934,5.60233757 L12.3446113,12.8457678 L4.33927696,20.4008891 C3.9763147,20.7464597 3.95615013,21.3224106 4.29894782,21.6950848 C4.48042895,21.8848098 4.72240379,21.9864482 4.96437863,21.9864482 C5.1861889,21.9864482 5.40799917,21.9051375 5.58275878,21.742516 L13.7090805,14.0789804 L15.9137402,16.0643172 C16.0884998,16.2201628 16.3035885,16.2946976 16.5186773,16.2946976 C16.733766,16.2946976 16.9555763,16.2133869 17.1236144,16.0575413 L19.3887678,14.0112215 L27.4680388,21.7492919 C27.6427984,21.9186893 27.8713302,22 28.0931405,22 C28.3351153,22 28.5703687,21.9051375 28.7518498,21.7154125 C29.0946475,21.3495142 29.0812044,20.7667874 28.7182422,20.4212168 L20.739794,12.7847847 Z" id="Shape"></path>
            </g>
        </g>
    </g>
</svg>