<?xml version="1.0" encoding="UTF-8"?>
<svg width="131px" height="60px" viewBox="0 0 131 60" version="1.1" xmlns="http://www.w3.org/2000/svg" xmlns:xlink="http://www.w3.org/1999/xlink">
    <!-- Generator: Sketch 46.2 (44496) - http://www.bohemiancoding.com/sketch -->
    <title>Logo_bullo_farm Copy</title>
    <desc>Created with Sketch.</desc>
    <defs>
        <polygon id="path-1" points="6.27714286 0.447222222 0.172857143 6.71377778 3.59928571 6.67411111 9.93214286 0.447222222"></polygon>
        <polygon id="path-3" points="0.335 3.0695 0.31 6.6192 4.75571429 2.3744 2.71428571 0.4732"></polygon>
        <polygon id="path-5" points="0.219636364 0.008 1.70690909 3.42 3.49018182 1.92266667 7.61672727 3.932 3.40872727 0.008"></polygon>
        <polygon id="path-7" points="0.0536 1.69425 3.7192 8.55825 1.7448 0.29625"></polygon>
        <polygon id="path-9" points="3.11344444 3.5648 6.33033333 0.248 0.355444444 0.2096"></polygon>
        <polygon id="path-11" points="2.07 1.81533333 3.46466667 0.360666667 0.326666667 0.343333333"></polygon>
        <polygon id="path-13" points="0.439333333 4.48575 0.442 8.45175 3.79733333 4.71825 3.79 0.71325"></polygon>
    </defs>
    <g id="Welcome" stroke="none" stroke-width="1" fill="none" fill-rule="evenodd">
        <g id="assets" transform="translate(-64.000000, -24.000000)">
            <g id="Page-1-Copy" transform="translate(64.000000, 24.000000)">
                <polygon id="Fill-1" fill="#92278F" points="39 0 39 4.34905237 56.5488027 4.34905237 56.5488027 21 61 21 61 0"></polygon>
                <polygon id="Fill-2" fill="#92278F" points="0 41 0 60 19 60 19 55.6919356 4.33311794 55.6919356 4.33311794 41"></polygon>
                <polygon id="Fill-3" fill="#1A1A1A" points="72.1894785 43.2606838 76.6542285 43.2606838 76.6542285 46.4223647 72.1894785 46.4223647 72.1894785 54 68 54 68 35 78 35 78 38.3333333 72.1894785 38.3333333"></polygon>
                <g id="Group-32" transform="translate(8.000000, 7.000000)">
                    <path d="M77.1507675,40.1065455 L76.0743355,34.9290909 C75.8989331,34.1436364 75.753371,33.4163636 75.6660337,31.6709091 C75.5503118,32.4854545 75.4338621,33.5618182 75.2002349,34.7545455 L74.1529154,40.1065455 L77.1507675,40.1065455 Z M77.9950278,28.0352727 L82.3902763,47.436 L78.3734893,47.436 L77.5874538,43.2469091 L73.7446136,43.2469091 L72.9884183,47.436 L69.4075899,47.436 L73.8610633,28.0352727 L77.9950278,28.0352727 Z" id="Fill-4" fill="#1A1A1A"></path>
                    <path d="M88.2832864,36.6157818 L89.3902864,36.6157818 C90.9325172,36.6157818 91.5431503,35.5983273 91.5431503,33.7656 C91.5431503,31.7583273 90.6697775,31.0892364 89.3902864,31.0892364 L88.2832864,31.0892364 L88.2832864,36.6157818 Z M84.3836769,28.0354182 L89.3902864,28.0354182 C91.4849254,28.0354182 92.6785349,28.1517818 93.6974698,29.0826909 C95.5024402,30.7699636 95.5024402,33.0674182 95.5024402,33.7946909 C95.5024402,37.4594182 93.8721444,38.4776 92.9696592,39.0296 L95.9100142,47.4361455 L91.7185527,47.4361455 L89.5351207,39.8150545 L88.2832864,39.8150545 L88.2832864,47.4361455 L84.3836769,47.4361455 L84.3836769,28.0354182 Z" id="Fill-6" fill="#1A1A1A"></path>
                    <path d="M98.223142,28.0354909 L103.69555,28.0354909 L105.179556,36.2085818 C105.528905,38.0122182 105.674467,40.0194909 105.790189,41.7642182 C105.936479,39.6405818 106.372438,36.8485818 106.606065,35.8013091 L108.264746,28.0354909 L113.620704,28.0354909 L113.620704,47.4362182 L109.807704,47.4362182 L109.807704,36.3838545 C109.807704,35.1329455 109.836817,34.3184 110.011491,30.5074909 C109.836817,31.7584 109.371018,35.1904 109.167231,36.2085818 L106.809852,47.4362182 L104.306183,47.4362182 L102.035414,36.0340364 C101.77413,34.6958545 101.483006,32.3402182 101.279219,30.5074909 C101.308331,32.0202182 101.395669,34.4056727 101.395669,35.9176727 L101.395669,47.4362182 L98.223142,47.4362182 L98.223142,28.0354909 Z" id="Fill-8" fill="#1A1A1A"></path>
                    <path d="M64.0153864,16.8949091 L65.5874574,16.8949091 C67.0430787,16.8949091 67.9739485,16.4294545 67.9739485,14.2767273 C67.9739485,14.1021818 67.9739485,13.172 67.5671024,12.4447273 C67.1296882,11.7174545 66.5772799,11.6592727 65.4418953,11.6592727 L64.0153864,11.6592727 L64.0153864,16.8949091 Z M64.0153864,8.54654545 L65.4710077,8.54654545 C67.5671024,8.54654545 67.6253272,7.12181818 67.6253272,6.30727273 C67.6253272,4.88181818 67.0139663,3.83527273 65.4710077,3.83527273 L64.0153864,3.83527273 L64.0153864,8.54654545 Z M60.1740018,0.723272727 L65.4710077,0.723272727 C67.8283864,0.723272727 69.1384456,0.723272727 70.2738302,2.06145455 C70.9143036,2.78872727 71.4958243,3.86436364 71.4958243,5.75527273 C71.4958243,8.95454545 69.9827059,9.62363636 69.0802207,10.0010909 C69.8080314,10.2636364 72.0496882,11.0192727 72.0496882,14.8876364 C72.0496882,17.0403636 71.147203,18.2912727 70.535842,18.9021818 C69.4004574,20.0941818 67.3050905,20.1232727 66.1697059,20.1232727 L60.1740018,20.1232727 L60.1740018,0.723272727 Z" id="Fill-10" fill="#92278F"></path>
                    <path d="M78.4059497,0.722981818 L78.4059497,13.0844364 C78.4059497,15.4982545 78.6097367,16.8655273 80.3855947,16.8655273 C82.2771746,16.8655273 82.306287,15.1498909 82.306287,12.8808 L82.306287,0.722981818 L85.6833284,0.722981818 L85.6833284,12.8808 C85.6833284,16.3135273 85.4795414,20.4138909 80.1235828,20.4138909 C75.6992219,20.4138909 74.4182751,18.1746182 74.4182751,13.2008 L74.4182751,0.722981818 L78.4059497,0.722981818 Z" id="Fill-12" fill="#92278F"></path>
                    <polygon id="Fill-14" fill="#92278F" points="88.9663367 0.722981818 92.9540112 0.722981818 92.9540112 16.5462545 97.8725556 16.5462545 97.8725556 20.1237091 88.9663367 20.1237091"></polygon>
                    <polygon id="Fill-16" fill="#92278F" points="100.002202 0.722981818 103.989877 0.722981818 103.989877 16.5462545 108.908421 16.5462545 108.908421 20.1237091 100.002202 20.1237091"></polygon>
                    <path d="M115.008275,5.11505455 C114.659654,6.07432727 114.600701,8.16887273 114.600701,10.6125091 C114.600701,12.2699636 114.600701,14.1608727 114.95005,15.5274182 C115.153837,16.3128727 115.503186,16.9528727 116.493009,16.9528727 C117.570169,16.9528727 117.889678,16.2546909 118.064352,15.2372364 C118.297979,13.8990545 118.297979,10.4954182 118.297979,10.2343273 C118.297979,9.0416 118.297979,6.30778182 117.91879,5.14414545 C117.599281,4.18414545 117.162595,3.89323636 116.405672,3.89323636 C115.794311,3.89323636 115.328512,4.24232727 115.008275,5.11505455 M122.517825,10.5543273 C122.517825,16.2837818 121.208494,20.4139636 116.405672,20.4139636 C113.378707,20.4139636 112.243322,18.5819636 112.010423,18.2037818 C110.758589,16.1674182 110.380855,13.3172364 110.380855,10.2052364 C110.380855,4.27141818 111.923086,0.432145455 116.493009,0.432145455 C121.179382,0.432145455 122.517825,4.67869091 122.517825,10.5543273" id="Fill-18" fill="#92278F"></path>
                    <polygon id="Fill-20" fill="#92278F" points="0.113028994 27.3898909 3.70914142 27.3898909 5.2382716 25.8735273 1.81974497 25.8735273"></polygon>
                    <polygon id="Fill-22" fill="#92278F" points="5.25814083 25.8736 11.5478805 25.8736 15.2509811 22.6496 8.3382355 22.6496"></polygon>
                    <polygon id="Fill-24" fill="#92278F" points="10.5902272 25.7450182 10.6186118 33.4199273 6.95990769 37.0773818 6.96354675 40.9224727 16.2504107 31.7435636 19.7409905 31.7064727 33.3110201 19.4992 37.4420734 21.6919273 39.7739787 19.2133818 37.9158781 11.0832 25.2199491 11.0832"></polygon>
                    <polygon id="Fill-26" fill="#92278F" points="36.450213 12.5646545 39.3811065 9.88101818 39.3432604 4.78792727 37.4968047 9.0192 32.933432 11.3101091"></polygon>
                    <polygon id="Fill-28" fill="#92278F" points="29.7058828 29.4332364 26.1941964 25.8841455 19.8942675 25.5125091 20.3105751 17.0448727 28.7466284 14.1917818 32.4424509 23.4397818 32.4424509 30.8070545 27.2502497 35.8186909 27.2779065 32.1314182"></polygon>
                    <polygon id="Fill-30" fill="#000000" points="16.1881101 31.7322182 22.4079799 25.8725818 26.132187 25.8725818 19.6794178 31.6951273"></polygon>
                </g>
                <g id="Group-35" transform="translate(24.000000, 33.000000)">
                    <mask id="mask-2" fill="white">
                        <use xlink:href="#path-1"></use>
                    </mask>
                    <g id="Clip-34"></g>
                    <polygon id="Fill-33" fill="#000000" mask="url(#mask-2)" points="-4 11.2567778 14.105 11.2567778 14.105 -4.09655556 -4 -4.09655556"></polygon>
                </g>
                <polygon id="Fill-36" fill="#000000" points="35.028117 39.5349129 37.7048522 37 40 38.8555644 35 43"></polygon>
                <g id="Group-40" transform="translate(35.000000, 36.000000)">
                    <mask id="mask-4" fill="white">
                        <use xlink:href="#path-3"></use>
                    </mask>
                    <g id="Clip-39"></g>
                    <polygon id="Fill-38" fill="#000000" mask="url(#mask-4)" points="-3.86285714 10.7086 8.92857143 10.7086 8.92857143 -3.6162 -3.86285714 -3.6162"></polygon>
                </g>
                <polygon id="Fill-41" fill="#000000" points="38 25 41.0182855 25 45 29 41.0946716 26.9514184 39.4079827 28.4774928"></polygon>
                <g id="Group-45" transform="translate(38.000000, 25.000000)">
                    <mask id="mask-6" fill="white">
                        <use xlink:href="#path-5"></use>
                    </mask>
                    <g id="Clip-44"></g>
                    <polygon id="Fill-43" fill="#000000" mask="url(#mask-6)" points="-4.02981818 7.82733333 11.8661818 7.82733333 11.8661818 -3.88733333 -4.02981818 -3.88733333"></polygon>
                </g>
                <polygon id="Fill-46" fill="#000000" points="45.3841117 18 44 19.3536674 47 26"></polygon>
                <g id="Group-50" transform="translate(44.000000, 18.000000)">
                    <mask id="mask-8" fill="white">
                        <use xlink:href="#path-7"></use>
                    </mask>
                    <g id="Clip-49"></g>
                    <polygon id="Fill-48" fill="#000000" mask="url(#mask-8)" points="-4.62 12.93975 8.3928 12.93975 8.3928 -4.0845 -4.62 -4.0845"></polygon>
                </g>
                <polygon id="Fill-51" fill="#000000" points="22 30.0343348 18.7692308 33 16 30"></polygon>
                <g id="Group-55" transform="translate(16.000000, 30.000000)">
                    <mask id="mask-10" fill="white">
                        <use xlink:href="#path-9"></use>
                    </mask>
                    <g id="Clip-54"></g>
                    <polygon id="Fill-53" fill="#000000" mask="url(#mask-10)" points="-4.18833333 8.2392 10.8741111 8.2392 10.8741111 -4.4632 -4.18833333 -4.4632"></polygon>
                </g>
                <polygon id="Fill-56" fill="#000000" points="13 33.0235507 11.6660293 35 10 33"></polygon>
                <g id="Group-60" transform="translate(9.000000, 33.000000)">
                    <mask id="mask-12" fill="white">
                        <use xlink:href="#path-11"></use>
                    </mask>
                    <g id="Clip-59"></g>
                    <polygon id="Fill-58" fill="#000000" mask="url(#mask-12)" points="-3.568 5.71 7.35933333 5.71 7.35933333 -3.55133333 -3.568 -3.55133333"></polygon>
                </g>
                <polygon id="Fill-61" fill="#000000" points="18.9912664 40 19 43.6234735 15.0039698 47 15 43.412483"></polygon>
                <g id="Group-65" transform="translate(15.000000, 40.000000)">
                    <mask id="mask-14" fill="white">
                        <use xlink:href="#path-13"></use>
                    </mask>
                    <g id="Clip-64"></g>
                    <polygon id="Fill-63" fill="#000000" mask="url(#mask-14)" points="-3.456 12.83325 7.692 12.83325 7.692 -3.669 -3.456 -3.669"></polygon>
                </g>
            </g>
        </g>
    </g>
</svg>