<?xml version="1.0" encoding="UTF-8"?>
<svg width="127px" height="59px" viewBox="0 0 127 59" version="1.1" xmlns="http://www.w3.org/2000/svg" xmlns:xlink="http://www.w3.org/1999/xlink">
    <!-- Generator: Sketch 46.2 (44496) - http://www.bohemiancoding.com/sketch -->
    <title>Logo_bullo_cash Copy</title>
    <desc>Created with Sketch.</desc>
    <defs>
        <path d="M0.0474666667,0.611163636 L0.0474666667,20.5185273 L6.94247467,20.5185273 C8.182304,20.5185273 9.238912,20.4258727 10.0752747,20.1104909 C10.910688,19.7968909 11.6093973,19.4405273 12.1305813,18.914 C12.6517653,18.3865818 13.0599787,17.7727455 13.277376,17.0707091 C13.4928747,16.3677818 13.6798933,15.6283273 13.6798933,14.8514545 C13.6798933,13.5213273 13.493824,12.4584727 12.8055573,11.6637818 C12.1163413,10.8690909 10.9610027,10.3978 10.318304,10.2499091 L10.318304,10.1946727 C10.9610027,9.9176 11.8609707,9.38750909 12.3925973,8.62043636 C12.9232747,7.85336364 12.8739093,6.92681818 12.8739093,5.85416364 C12.8739093,4.91158182 12.7258133,4.10174545 12.4305707,3.45494545 C12.135328,2.80814545 11.722368,2.26112727 11.1916907,1.87269091 C10.6610133,1.48336364 10.0259093,1.14749091 9.28827733,0.980890909 C8.55064533,0.814290909 7.749408,0.611163636 6.883616,0.611163636 L0.0474666667,0.611163636 L0.0474666667,0.611163636 Z M4.54161067,3.62778182 L5.55549867,3.62778182 C6.618752,3.62778182 7.39530667,3.91376364 7.886112,4.30130909 C8.378816,4.68974545 8.62469333,5.44612727 8.62469333,6.38870909 C8.62469333,7.33129091 8.35413333,8.02263636 7.81301333,8.41998182 C7.27189333,8.81732727 6.41179733,9.05698182 5.231776,9.05698182 L4.54161067,9.05698182 L4.54161067,3.62778182 L4.54161067,3.62778182 Z M4.54161067,11.4695636 L5.85169067,11.4695636 C6.32256,11.4695636 6.75640533,11.6486364 7.14942933,11.7404 C7.54340267,11.8330545 7.88136533,12.1261636 8.168064,12.3578 C8.45191467,12.5885455 8.67880533,12.8816545 8.845888,13.2602909 C9.01297067,13.6389273 9.09746133,14.0888364 9.09746133,14.6616909 C9.09746133,15.8082909 8.78228267,16.5424 8.15287467,16.9664727 C7.52251733,17.3923273 6.69754667,17.5019091 5.67416533,17.5019091 L4.54161067,17.5019091 L4.54161067,11.4695636 L4.54161067,11.4695636 Z" id="path-1"></path>
        <path d="M10.5827357,0.612054545 L10.5827357,14.6572364 C10.5827357,15.1570364 10.246125,15.6140727 10.1765143,16.0301273 C10.1078571,16.4461818 9.67779643,16.807 9.48994286,17.1108 C9.30304286,17.4163818 9.05606786,17.6569273 8.74138929,17.8324364 C8.42480357,18.0088364 8.02335,18.0961455 7.51032857,18.0961455 C7.015425,18.0961455 6.63304286,18.0088364 6.30692143,17.8324364 C5.98175357,17.6569273 5.77768929,17.4163818 5.58983571,17.1108 C5.40198214,16.807 5.38195714,16.4461818 5.3133,16.0301273 C5.24273571,15.6140727 5.42391429,15.1570364 5.42391429,14.6572364 L5.42391429,0.612054545 L0.910660714,0.612054545 L0.910660714,14.6572364 C0.910660714,15.9891455 1.00697143,17.0698182 1.38363214,17.9019273 C1.75838571,18.7331455 2.17128214,19.3763818 2.8035,19.8289636 C3.43571786,20.2815455 4.16043214,20.5826727 4.97096786,20.7287818 C5.78055,20.8784545 6.62732143,20.9515091 7.496025,20.9515091 C8.36568214,20.9515091 9.218175,20.8686545 10.0287107,20.7029455 C10.8382929,20.5354545 11.5858929,20.2129455 12.2181107,19.7318545 C12.849375,19.2516545 13.4072143,18.6004 13.7829214,17.7772 C14.157675,16.954 14.451375,15.9152 14.451375,14.6572364 L14.451375,0.612054545 L10.5827357,0.612054545 L10.5827357,0.612054545 Z" id="path-3"></path>
        <path d="M4.17568929,1.67981771 C3.22783929,2.20117187 2.50121786,2.92486979 1.99773214,3.85091146 C1.49424643,4.77786458 1.168125,5.88802083 1.01936786,7.18411458 C0.871564286,8.47929688 0.798139286,9.89205729 0.798139286,11.4251302 C0.798139286,12.9755208 0.871564286,14.3946615 1.01936786,15.6807292 C1.168125,16.9667969 1.49424643,18.0742188 1.99773214,19.0002604 C2.50121786,19.9263021 3.22783929,20.6390625 4.17568929,21.13125 C5.12449286,21.622526 6.39846429,21.875 7.99855714,21.875 C9.40126071,21.875 10.5417321,21.6790365 11.4218786,21.2643229 C12.3010714,20.8486979 12.9819214,20.2972656 13.4672893,19.5589844 C13.95075,18.822526 14.2816393,18.0122396 14.4599571,17.0296875 C14.6373214,16.0471354 14.7269571,14.6298177 14.7269571,14.0127604 L10.4587714,14.0127604 C10.4587714,14.6298177 10.3882071,15.8903646 10.2508929,16.5611979 C10.112625,17.2329427 9.92477143,17.6494792 9.68828571,18.0186198 C9.45084643,18.386849 9.16954286,18.6338542 8.84342143,18.7559896 C8.5173,18.8799479 8.16638571,18.9391927 7.79163214,18.9391927 C7.33677857,18.9391927 6.93723214,18.8498698 6.59108571,18.6703125 C6.24493929,18.4916667 5.95886786,18.1407552 5.73191786,17.6203125 C5.50401429,17.1007813 5.33618571,16.3661458 5.22843214,15.4209635 C5.11877143,14.4757813 5.06537143,13.2352865 5.06537143,11.703125 C5.06537143,10.2666667 5.10446786,9.0453125 5.18361429,8.05364583 C5.26276071,7.06106771 5.400075,6.24804687 5.59746429,5.6328125 C5.79485357,5.01848958 6.067575,4.55638021 6.41276786,4.28111979 C6.75891429,4.00859375 7.19851071,3.83450521 7.73251071,3.83450521 C8.70038571,3.83450521 9.36693214,4.09791667 9.73310357,4.76783854 C10.0983214,5.43958333 10.2804536,6.60716146 10.2804536,7.84127604 L14.5486393,7.84127604 C14.5486393,7.22421875 14.4933321,6.46041667 14.3855786,5.61914062 C14.2759179,4.77786458 14.0051036,4.13984375 13.570275,3.41067708 C13.1354464,2.68333333 12.4784357,2.08177083 11.5992429,1.60963542 C10.7210036,1.1375 9.52045714,0.900520833 7.99855714,0.900520833 C6.39846429,0.900520833 5.12449286,1.16119792 4.17568929,1.67981771 L4.17568929,1.67981771 Z" id="path-5"></path>
        <path d="M2.42683929,2.37617187 C1.26062143,3.35963542 0.678942857,4.85351562 0.678942857,6.85690104 C0.678942857,7.68997396 0.786696429,8.421875 1.00411071,9.05533854 C1.22247857,9.68880208 1.56290357,10.2466146 2.02729286,10.728776 C2.49072857,11.2109375 3.06859286,11.6320312 3.76088571,11.9911458 C4.452225,12.3511719 5.27229643,12.6811198 6.22014643,12.983724 C6.93151071,13.2115885 7.5294,13.4339844 8.01286071,13.65 C8.49822857,13.86875 8.88728571,14.109375 9.1848,14.3736979 C9.48040714,14.6398437 9.69305357,14.9369792 9.82178571,15.2669271 C9.95051786,15.5986979 10.0144071,15.990625 10.0144071,16.4445312 C10.0144071,17.2958333 9.75312857,17.9247396 9.22961786,18.33125 C8.70515357,18.7377604 8.11775357,18.9401042 7.46551071,18.9401042 C6.91243929,18.9401042 6.454725,18.8644531 6.08855357,18.7140625 C5.72238214,18.561849 5.43345,18.3540365 5.21508214,18.0897135 C4.99862143,17.8244792 4.852725,17.4990885 4.77453214,17.1108073 C4.69443214,16.7234375 4.66105714,16.2941406 4.66105714,15.8201823 L4.66105714,15.2477865 L0.792417857,15.2477865 L0.792417857,16.0471354 C0.792417857,17.9201823 1.10518929,19.3566406 2.142675,20.3583333 C3.18016071,21.361849 4.6992,21.8622396 7.10982857,21.8622396 C9.42033214,21.8622396 11.2235357,21.3746094 12.5184857,20.4011719 C13.8124821,19.4277344 14.4590036,17.8727865 14.4590036,15.7354167 C14.4590036,15.1110677 14.3998821,14.5441406 14.2816393,14.0328125 C14.1633964,13.5233073 13.95075,13.0548177 13.6446536,12.6291667 C13.3385571,12.2035156 12.9285214,11.8061198 12.4145464,11.4378906 C11.8996179,11.06875 11.2387929,10.7141927 10.4292107,10.3742187 L7.13938929,9.01158854 C6.23063571,8.65247396 5.63751429,8.25872396 5.36097857,7.83307292 C5.08444286,7.40833333 4.946175,6.88059896 4.946175,6.25716146 C4.946175,5.95455729 4.98050357,5.65651042 5.05011429,5.37304687 C5.11877143,5.08867187 5.24750357,4.82890625 5.43535714,4.61106771 C5.62225714,4.39414062 5.87495357,4.19908854 6.19153929,4.06692708 C6.50621786,3.93567708 6.90290357,3.83085937 7.37682857,3.83085937 C8.20643571,3.83085937 8.79860357,4.0140625 9.15428571,4.53450521 C9.50996786,5.05403646 9.68733214,5.99010417 9.68733214,6.60716146 L14.3331321,6.60716146 L14.3331321,6.34739583 C14.3331321,5.38216146 13.8916286,4.55546875 13.5664607,3.86458333 C13.2393857,3.17460937 12.50895,2.60677083 11.9253643,2.16289062 C11.3417786,1.71901042 10.6513929,1.39726562 9.85134643,1.19856771 C9.05034643,0.999869792 8.17592143,0.900520833 7.22807143,0.900520833 C5.19315,0.900520833 3.59210357,1.39179687 2.42683929,2.37617187 L2.42683929,2.37617187 Z" id="path-7"></path>
    </defs>
    <g id="Welcome" stroke="none" stroke-width="1" fill="none" fill-rule="evenodd">
        <g id="assets" transform="translate(-155.000000, -5310.000000)">
            <g id="Page-1" transform="translate(155.000000, 5310.000000)">
                <g id="Group-3" transform="translate(69.000000, 10.000000)">
                    <mask id="mask-2" fill="white">
                        <use xlink:href="#path-1"></use>
                    </mask>
                    <g id="Clip-2"></g>
                    <polygon id="Fill-1" fill="#ED0303" mask="url(#mask-2)" points="-4.6992 24.9730727 18.42656 24.9730727 18.42656 -3.84249091 -4.6992 -3.84249091"></polygon>
                </g>
                <g id="Group-6" transform="translate(84.000000, 10.000000)">
                    <mask id="mask-4" fill="white">
                        <use xlink:href="#path-3"></use>
                    </mask>
                    <g id="Clip-5"></g>
                    <polygon id="Fill-4" fill="#ED0303" mask="url(#mask-4)" points="-3.85719643 25.4060545 19.2192321 25.4060545 19.2192321 -3.84249091 -3.85719643 -3.84249091"></polygon>
                </g>
                <polygon id="Fill-7" fill="#ED0303" points="101 11 101 31 113 31 113 27.9701038 105.42061 27.9701038 105.42061 11"></polygon>
                <polygon id="Fill-8" fill="#ED0303" points="114 11 114 31 125 31 125 27.9701038 117.666365 27.9701038 117.666365 11"></polygon>
                <g id="Group-11" transform="translate(67.000000, 37.000000)">
                    <mask id="mask-6" fill="white">
                        <use xlink:href="#path-5"></use>
                    </mask>
                    <g id="Clip-10"></g>
                    <polygon id="Fill-9" fill="#1A1A1A" mask="url(#mask-6)" points="-3.97067143 26.4322917 19.4938607 26.4322917 19.4938607 -3.65677083 -3.97067143 -3.65677083"></polygon>
                </g>
                <path d="M87.4388889,38 L82,58 L86.3157407,58 L87.2657407,53.7579555 L92.7333333,53.7579555 L93.6833333,58 L98,58 L92.5601852,38 L87.4388889,38 Z M89.9712963,41.6369333 L90.0287037,41.6369333 L92.0138889,50.7270286 L87.9842593,50.7270286 L89.9712963,41.6369333 Z" id="Fill-12" fill="#1A1A1A"></path>
                <g id="Group-15" transform="translate(98.000000, 37.000000)">
                    <mask id="mask-8" fill="white">
                        <use xlink:href="#path-7"></use>
                    </mask>
                    <g id="Clip-14"></g>
                    <polygon id="Fill-13" fill="#1A1A1A" mask="url(#mask-8)" points="-4.08891429 26.4195313 19.2278143 26.4195313 19.2278143 -3.65677083 -4.08891429 -3.65677083"></polygon>
                </g>
                <polygon id="Fill-16" fill="#1A1A1A" points="122.666972 38 122.666972 45.8789778 118.333028 45.8789778 118.333028 38 114 38 114 58 118.333028 58 118.333028 49.515911 122.666972 49.515911 122.666972 58 127 58 127 38"></polygon>
                <polygon id="Fill-17" fill="#ED0303" points="0.00198741305 0 0 58 2.99801259 58 3 0"></polygon>
                <polygon id="Fill-18" fill="#ED0303" points="0 57.9970199 58 58 58 55.0029801 0 55"></polygon>
                <polygon id="Fill-19" fill="#1A1A1A" points="7 33 11.5868349 33 14 30 9.40041629 30"></polygon>
                <polygon id="Fill-20" fill="#1A1A1A" points="14 30 20.6309078 30 23 27 16.3973282 27"></polygon>
                <polygon id="Fill-21" fill="#ED0303" points="19.4637939 30.0107404 19.4691248 39.0120829 15 43.5024613 15.003554 48 26.339849 36.5775944 33.5322079 33.8674357 46.2732119 25.4917209 50.7378943 25.4997762 53 23.2210233 50.7378943 12 37.2807641 12.0617572"></polygon>
                <polygon id="Fill-22" fill="#1A1A1A" points="49.296961 14 54 9.49776364 54 5 52.8006288 8.38852997 47 11.7448564"></polygon>
                <polygon id="Fill-23" fill="#1A1A1A" points="19 41 19 45.6249184 16 48 16.0641072 43.4061643"></polygon>
                <polygon id="Fill-24" fill="#1A1A1A" points="36.5122832 25.5909165 46 25 32.3212805 36 26 36"></polygon>
                <polygon id="Fill-25" fill="#1A1A1A" points="53 25.3984573 48.3998703 21 37 21 43.1913577 28 48.254613 25.4064239"></polygon>
                <polygon id="Fill-26" fill="#ED0303" points="42.5124682 34.1724335 37.8156726 29.5809067 30 29.518785 30.5164959 19.4066461 40.9686667 16 44.9632174 27.1389745 46 35.4157817 41.7846354 39.4673975 41.2349701 40 41.2378132 35.3956835"></polygon>
                <polygon id="Fill-27" fill="#1A1A1A" points="42 34 42 38.5858296 39 41 39.13147 36.3995832"></polygon>
            </g>
        </g>
    </g>
</svg>