<?xml version="1.0" encoding="UTF-8"?>
<svg width="57px" height="56px" viewBox="0 0 57 56" version="1.1" xmlns="http://www.w3.org/2000/svg" xmlns:xlink="http://www.w3.org/1999/xlink">
    <!-- Generator: Sketch 46.2 (44496) - http://www.bohemiancoding.com/sketch -->
    <title>logo_bullo_farm_sml</title>
    <desc>Created with Sketch.</desc>
    <defs>
        <polygon id="path-1" points="5.75031122 0.447222222 0.15834949 6.71377778 3.29720281 6.67411111 9.0985523 0.447222222"></polygon>
        <polygon id="path-3" points="0.340982143 3.0695 0.315535714 6.6192 4.84063776 2.3744 2.7627551 0.4732"></polygon>
        <polygon id="path-5" points="0.195613636 0.008 1.52021591 3.42 3.10844318 1.92266667 6.78364773 3.932 3.03589773 0.008"></polygon>
        <polygon id="path-7" points="0.0545571429 1.506 3.78561429 7.60733333 1.77595714 0.263333333"></polygon>
        <polygon id="path-9" points="3.16904167 3.5648 6.443375 0.248 0.361791667 0.2096"></polygon>
        <polygon id="path-11" points="2.10696429 1.81533333 3.52653571 0.360666667 0.3325 0.343333333"></polygon>
        <polygon id="path-13" points="0.447178571 3.98733333 0.449892857 7.51266667 3.86514286 4.194 3.85767857 0.634"></polygon>
    </defs>
    <g id="Welcome" stroke="none" stroke-width="1" fill="none" fill-rule="evenodd">
        <g id="assets" transform="translate(-254.000000, -24.000000)">
            <g id="logo_bullo_farm_sml" transform="translate(254.000000, 24.000000)">
                <polygon id="Fill-1" fill="#92278F" points="35.625 0 35.625 4.14195464 52.6752572 4.14195464 52.6752572 20 57 20 57 0"></polygon>
                <polygon id="Fill-2" fill="#92278F" points="0 38 0 56 18.3214286 56 18.3214286 51.9186758 4.17836373 51.9186758 4.17836373 38"></polygon>
                <polygon id="Fill-20" fill="#92278F" points="8.14285714 32 11.7137405 32 13.2321429 31 9.8375994 31"></polygon>
                <polygon id="Fill-22" fill="#92278F" points="12.2142857 31 17.9802648 31 21.375 28 15.0378941 28"></polygon>
                <polygon id="Fill-24" fill="#92278F" points="17.7408667 30.7580736 17.7681609 37.9599064 14.25 41.3919179 14.2534993 45 23.1836233 36.3868727 26.5401182 36.352068 39.588877 24.8972434 43.5612425 26.9548124 45.8035714 24.6290429 44.0168468 17 31.8086114 17"></polygon>
                <polygon id="Fill-26" fill="#92278F" points="42.0096149 18 44.7857143 15.584401 44.749867 11 43.0009313 14.8086599 38.6785714 16.8707566"></polygon>
                <polygon id="Fill-28" fill="#92278F" points="36.0148214 34.0948986 32.5965783 30.8127921 26.4642857 30.4691126 26.8695158 22.6384639 35.081092 20 38.6785714 28.5523086 38.6785714 35.3653697 33.6245308 40 33.6514517 36.5901066"></polygon>
                <polygon id="Fill-30" fill="#000000" points="23.4107143 36 29.1406026 31 32.5714286 31 26.6269879 35.9683505"></polygon>
                <g id="Group-35" transform="translate(22.392857, 31.000000)">
                    <mask id="mask-2" fill="white">
                        <use xlink:href="#path-1"></use>
                    </mask>
                    <g id="Clip-34"></g>
                    <polygon id="Fill-33" fill="#000000" mask="url(#mask-2)" points="-3.66428571 11.2567778 12.9211875 11.2567778 12.9211875 -4.09655556 -3.66428571 -4.09655556"></polygon>
                </g>
                <polygon id="Fill-36" fill="#000000" points="33.6179048 37.5349129 36.3424388 35 38.6785714 36.8555644 33.5892857 41"></polygon>
                <g id="Group-40" transform="translate(33.589286, 34.000000)">
                    <mask id="mask-4" fill="white">
                        <use xlink:href="#path-3"></use>
                    </mask>
                    <g id="Clip-39"></g>
                    <polygon id="Fill-38" fill="#000000" mask="url(#mask-4)" points="-3.93183673 10.7086 9.0880102 10.7086 9.0880102 -3.6162 -3.93183673 -3.6162"></polygon>
                </g>
                <polygon id="Fill-41" fill="#000000" points="36.6428571 23 39.7150406 23 43.7678571 27 39.7927908 24.9514184 38.0759824 26.4774928"></polygon>
                <g id="Group-45" transform="translate(36.642857, 23.000000)">
                    <mask id="mask-6" fill="white">
                        <use xlink:href="#path-5"></use>
                    </mask>
                    <g id="Clip-44"></g>
                    <polygon id="Fill-43" fill="#000000" mask="url(#mask-6)" points="-3.58905682 7.82733333 10.5683182 7.82733333 10.5683182 -3.88733333 -3.58905682 -3.88733333"></polygon>
                </g>
                <polygon id="Fill-46" fill="#000000" points="43.1409709 17 41.7321429 18.184459 44.7857143 24"></polygon>
                <g id="Group-50" transform="translate(41.732143, 17.000000)">
                    <mask id="mask-8" fill="white">
                        <use xlink:href="#path-7"></use>
                    </mask>
                    <g id="Clip-49"></g>
                    <polygon id="Fill-48" fill="#000000" mask="url(#mask-8)" points="-4.7025 11.502 8.54267143 11.502 8.54267143 -3.63066667 -4.7025 -3.63066667"></polygon>
                </g>
                <polygon id="Fill-51" fill="#000000" points="21.375 28.0343348 18.0865385 31 15.2678571 28"></polygon>
                <g id="Group-55" transform="translate(15.267857, 28.000000)">
                    <mask id="mask-10" fill="white">
                        <use xlink:href="#path-9"></use>
                    </mask>
                    <g id="Clip-54"></g>
                    <polygon id="Fill-53" fill="#000000" mask="url(#mask-10)" points="-4.263125 8.2392 11.0682917 8.2392 11.0682917 -4.4632 -4.263125 -4.4632"></polygon>
                </g>
                <polygon id="Fill-56" fill="#000000" points="12.2142857 31.0235507 10.8564941 33 9.16071429 31"></polygon>
                <g id="Group-60" transform="translate(8.142857, 31.000000)">
                    <mask id="mask-12" fill="white">
                        <use xlink:href="#path-11"></use>
                    </mask>
                    <g id="Clip-59"></g>
                    <polygon id="Fill-58" fill="#000000" mask="url(#mask-12)" points="-3.63171429 5.71 7.49075 5.71 7.49075 -3.55133333 -3.63171429 -3.55133333"></polygon>
                </g>
                <polygon id="Fill-61" fill="#000000" points="18.312539 37 18.3214286 40.6234735 14.2540407 44 14.25 40.412483"></polygon>
                <g id="Group-65" transform="translate(14.250000, 37.000000)">
                    <mask id="mask-14" fill="white">
                        <use xlink:href="#path-13"></use>
                    </mask>
                    <g id="Clip-64"></g>
                    <polygon id="Fill-63" fill="#000000" mask="url(#mask-14)" points="-3.51771429 11.4073333 7.82935714 11.4073333 7.82935714 -3.26133333 -3.51771429 -3.26133333"></polygon>
                </g>
            </g>
        </g>
    </g>
</svg>