<?xml version="1.0" encoding="UTF-8"?>
<svg width="126px" height="74px" viewBox="0 0 126 74" version="1.1" xmlns="http://www.w3.org/2000/svg" xmlns:xlink="http://www.w3.org/1999/xlink">
    <!-- Generator: Sketch 46.2 (44496) - http://www.bohemiancoding.com/sketch -->
    <title>Logo_bullo_safe Copy</title>
    <desc>Created with Sketch.</desc>
    <defs></defs>
    <g id="Welcome" stroke="none" stroke-width="1" fill="none" fill-rule="evenodd">
        <g id="assets" transform="translate(-369.000000, -5304.000000)">
            <g id="Group-2" transform="translate(369.000000, 5304.000000)">
                <path d="M66.5624797,29.8724523 L67.952346,29.8724523 C68.6047662,29.8724523 69.1156347,29.7777662 69.4844765,29.588394 C69.8526058,29.3990218 70.1319091,29.136084 70.3214364,28.7993432 C70.5109636,28.463077 70.6266274,28.0629749 70.6689029,27.5999859 C70.7109409,27.1374716 70.7320787,26.6324791 70.7320787,26.0850083 C70.7320787,25.5168917 70.7004908,25.0225781 70.6373151,24.6015928 C70.5741393,24.1808448 70.4423253,23.8282043 70.2425854,23.544146 C70.0421331,23.2600877 69.7633048,23.0446116 69.4053881,22.897243 C69.0472339,22.7501117 68.5731783,22.6763087 67.9839339,22.6763087 L66.5624797,22.6763087 L66.5624797,29.8724523 Z M66.5624797,19.8357257 L68.0155217,19.8357257 C69.0895094,19.8357257 69.8105679,19.5673298 70.1794097,19.0307752 C70.547539,18.4942207 70.7320787,17.7106279 70.7320787,16.6795224 C70.7320787,15.6695373 70.5268763,14.9118112 70.1162339,14.4068187 C69.7055916,13.9018262 68.9631579,13.6493299 67.8891703,13.6493299 L66.5624797,13.6493299 L66.5624797,19.8357257 Z M63.3405168,10.6193747 L68.0471096,10.6193747 C69.0788217,10.6193747 69.9582946,10.7771849 70.6848156,11.0928052 C71.4113367,11.4084255 72.0060437,11.8296482 72.4694116,12.3552865 C72.9325421,12.8816368 73.264096,13.4867736 73.4645483,14.1702221 C73.6645257,14.8541453 73.7645143,15.5644097 73.7645143,16.3005407 L73.7645143,17.1211536 C73.7645143,17.7317484 73.7172513,18.2471825 73.6224877,18.6679305 C73.527724,19.0889158 73.3856974,19.456744 73.1959326,19.7726017 C73.0064054,20.088222 72.7743652,20.3672968 72.5009995,20.6088769 C72.2271588,20.8509316 71.91128,21.0773239 71.5533633,21.2875793 C72.3114723,21.6454405 72.8693663,22.176537 73.2275205,22.8813433 C73.5854372,23.5866242 73.7645143,24.5280271 73.7645143,25.7062639 L73.7645143,26.9687453 C73.7645143,28.9467118 73.2852337,30.4619267 72.3273849,31.5136781 C71.3688237,32.5661414 69.8366932,33.0917797 67.7312309,33.0917797 L63.3405168,33.0917797 L63.3405168,10.6193747 Z" id="Fill-1" fill="#000000"></path>
                <path d="M87.2336539,28.0418544 C87.2336539,28.7786974 87.0963773,29.4621459 86.8230116,30.0933866 C86.5491709,30.7246272 86.175579,31.2770815 85.7017609,31.7502747 C85.2277053,32.2237052 84.6750363,32.5977034 84.0432789,32.8708455 C83.4115215,33.1439876 82.7372511,33.2811519 82.0216552,33.2811519 C81.3053467,33.2811519 80.6317888,33.1439876 80.0000314,32.8708455 C79.368274,32.5977034 78.8153675,32.2237052 78.3415494,31.7502747 C77.8677313,31.2770815 77.4936644,30.7246272 77.2202987,30.0933866 C76.9462205,29.4621459 76.8096564,28.7786974 76.8096564,28.0418544 L76.8096564,10.6193747 L80.0316193,10.6193747 L80.0316193,27.7262341 C80.0316193,28.5262011 80.2211465,29.1149635 80.6002009,29.4937079 C80.9792554,29.8724523 81.4530735,30.0618245 82.0216552,30.0618245 C82.5902368,30.0618245 83.0640549,29.8724523 83.4431094,29.4937079 C83.8221638,29.1149635 84.011691,28.5262011 84.011691,27.7262341 L84.011691,10.6193747 L87.2336539,10.6193747 L87.2336539,28.0418544 Z" id="Fill-4" fill="#000000"></path>
                <polygon id="Fill-6" fill="#000000" points="90.3733458 10.6193984 93.5953087 10.6193984 93.5953087 29.8724761 99.9760587 29.8724761 99.9760587 33.0918035 90.3733458 33.0918035"></polygon>
                <polygon id="Fill-8" fill="#000000" points="102.594646 10.6193984 105.816609 10.6193984 105.816609 29.8724761 112.197359 29.8724761 112.197359 33.0918035 102.594646 33.0918035"></polygon>
                <path d="M117.867405,27.7893107 C117.867405,28.5679199 118.083058,29.1414946 118.515075,29.5095601 C118.94638,29.877863 119.457249,30.0617771 120.046968,30.0617771 C120.636213,30.0617771 121.147081,29.877863 121.579099,29.5095601 C122.010404,29.1414946 122.226532,28.5679199 122.226532,27.7893107 L122.226532,15.9219862 C122.226532,15.1436142 122.010404,14.5700395 121.579099,14.2017367 C121.147081,13.8339085 120.636213,13.6495198 120.046968,13.6495198 C119.457249,13.6495198 118.94638,13.8339085 118.515075,14.2017367 C118.083058,14.5700395 117.867405,15.1436142 117.867405,15.9219862 L117.867405,27.7893107 Z M114.645442,15.9219862 C114.645442,15.0173661 114.803382,14.2176364 115.11926,13.5232716 C115.435139,12.8286696 115.850769,12.2558068 116.366863,11.8030222 C116.882719,11.3507121 117.461751,11.0089878 118.104433,10.7771374 C118.746403,10.5459989 119.394073,10.429955 120.046968,10.429955 C120.699389,10.429955 121.347059,10.5459989 121.989741,10.7771374 C122.631711,11.0089878 123.210743,11.3507121 123.727074,11.8030222 C124.242693,12.2558068 124.658798,12.8286696 124.974676,13.5232716 C125.290555,14.2176364 125.448494,15.0173661 125.448494,15.9219862 L125.448494,27.7893107 C125.448494,28.7155258 125.290555,29.520239 124.974676,30.2039249 C124.658798,30.887848 124.242693,31.4559646 123.727074,31.9082747 C123.210743,32.360822 122.631711,32.7025463 121.989741,32.9339221 C121.347059,33.1652979 120.699389,33.2811045 120.046968,33.2811045 C119.394073,33.2811045 118.746403,33.1652979 118.104433,32.9339221 C117.461751,32.7025463 116.882719,32.360822 116.366863,31.9082747 C115.850769,31.4559646 115.435139,30.887848 115.11926,30.2039249 C114.803382,29.520239 114.645442,28.7155258 114.645442,27.7893107 L114.645442,15.9219862 Z" id="Fill-10" fill="#000000"></path>
                <path d="M74.055755,46.659589 L70.8337921,46.659589 L70.8337921,45.9336623 C70.8337921,45.1972939 70.6601776,44.5608325 70.3124735,44.0240406 C69.9650069,43.487486 69.38075,43.2193274 68.5594654,43.2193274 C68.1172352,43.2193274 67.7538559,43.3035719 67.469565,43.4718237 C67.1852742,43.64055 66.9641591,43.8560262 66.8062197,44.1187267 C66.6482804,44.3821392 66.5378416,44.6868433 66.4746658,45.034263 C66.4114901,45.381208 66.3799022,45.7442901 66.3799022,46.1230345 C66.3799022,46.5649029 66.3955774,46.9386638 66.4271653,47.2436053 C66.4587532,47.5487841 66.5378416,47.8114846 66.6641931,48.0326561 C66.7905446,48.2535904 66.9746092,48.4484207 67.2168621,48.6164351 C67.4588774,48.7851615 67.7904313,48.9531759 68.2119988,49.1214276 L70.6758527,50.0998507 C71.3914486,50.3734674 71.9709555,50.6945458 72.4131857,51.0626113 C72.8554159,51.4309142 73.1974199,51.862341 73.4399102,52.3566547 C73.6816881,52.8512057 73.84509,53.4193222 73.9294035,54.0610045 C74.013242,54.7031613 74.055755,55.4338343 74.055755,56.2544472 C74.055755,57.2013082 73.9609914,58.0802989 73.7714641,58.8899956 C73.5819369,59.7001669 73.2710457,60.3945316 72.8397407,60.9730898 C72.4077231,61.5521226 71.8336788,62.0096534 71.1180829,62.3461569 C70.402012,62.6824231 69.5277642,62.8511494 68.4962896,62.8511494 C67.7168055,62.8511494 66.9902844,62.7139851 66.3167265,62.440843 C65.6424561,62.1674636 65.0634243,61.7937027 64.5793936,61.3202722 C64.0946504,60.8468417 63.7106084,60.2841831 63.4263175,59.6315847 C63.1420267,58.9796982 63,58.2746546 63,57.5169285 L63,56.3175712 L66.2219629,56.3175712 L66.2219629,57.3275563 C66.2219629,57.9170306 66.3955774,58.4481271 66.743044,58.9215576 C67.0905106,59.3949881 67.675005,59.6315847 68.4962896,59.6315847 C69.0437335,59.6315847 69.4700511,59.5527983 69.7754797,59.3949881 C70.0806707,59.237178 70.3124735,59.0162437 70.4704128,58.7321854 C70.6285897,58.4481271 70.7281034,58.0959613 70.7706164,57.674976 C70.8126543,57.254228 70.8337921,56.7910017 70.8337921,56.2860092 C70.8337921,55.6972467 70.8126543,55.2129001 70.7706164,54.8341557 C70.7281034,54.4554113 70.6388023,54.1507071 70.5020007,53.9188567 C70.3649616,53.6877182 70.1754344,53.4981087 69.933419,53.3507401 C69.6911662,53.2038461 69.3698249,53.0460359 68.9701077,52.8773096 L66.6641931,51.9304486 C65.2743267,51.362332 64.3423658,50.6103013 63.8685477,49.6738819 C63.3947296,48.7379371 63.1579394,47.5644464 63.1579394,46.1545965 C63.1579394,45.3133378 63.2733657,44.5133708 63.5054059,43.755882 C63.7367337,42.9983932 64.0789752,42.3462693 64.531893,41.7990359 C64.9845733,41.2520398 65.5586176,40.8156294 66.2535507,40.4890929 C66.9484839,40.1632683 67.7588434,40 68.6858168,40 C69.4859637,40 70.2177099,40.1473686 70.8810551,40.4418685 C71.5444004,40.7366056 72.1129821,41.1257916 72.5868002,41.6096637 C73.0608558,42.0940104 73.4239975,42.6355484 73.6767005,43.2352271 C73.9294035,43.8349057 74.055755,44.4502467 74.055755,45.0814874 L74.055755,46.659589 Z" id="Fill-12" fill="#77BC1F"></path>
                <path d="M82.38075,46.4702168 L82.3175743,46.4702168 L80.7381807,54.6132214 L83.9601436,54.6132214 L82.38075,46.4702168 Z M81.0224715,40 L83.7074406,40 L88.7299122,62.4721677 L85.5079493,62.4721677 L84.5603131,57.6431766 L80.169599,57.6431766 L79.2219629,62.4721677 L76,62.4721677 L81.0224715,40 Z" id="Fill-15" fill="#77BC1F"></path>
                <polygon id="Fill-17" fill="#77BC1F" points="91 40 100.602713 40 100.602713 43.0299552 94.2219629 43.0299552 94.2219629 49.8475917 99.7814282 49.8475917 99.7814282 52.8775469 94.2219629 52.8775469 94.2219629 62.472405 91 62.472405"></polygon>
                <polygon id="Fill-19" fill="#77BC1F" points="104 40 113.602713 40 113.602713 43.0299552 107.221963 43.0299552 107.221963 49.6264202 112.781428 49.6264202 112.781428 52.6566127 107.221963 52.6566127 107.221963 59.2530776 113.602713 59.2530776 113.602713 62.472405 104 62.472405"></polygon>
                <g id="Group-20">
                    <polygon id="Fill-21" fill="#77BC1F" points="8.03115222 0.223185476 44.4888699 0.24259873 41.8325496 2.85914832 9.35018335 2.87097478 3.12419609 8.95156289 3.12241482 23.3088913 0.542911843 25.93816 0.572748131 7.7470486"></polygon>
                    <polygon id="Fill-23" fill="#77BC1F" points="13.4115479 60.2961159 17.1361854 60.3284713 26.2669803 69.765544 48.3402671 47.5639222 52.0192596 47.5326825 26.3424616 73.2231115"></polygon>
                    <polygon id="Fill-25" fill="#77BC1F" points="3.12265975 37.3613425 7.35139696 37.3613425 9.14936732 35.5762157 5.1290388 35.5762157"></polygon>
                    <polygon id="Fill-27" fill="#77BC1F" points="9.17276876 35.5762157 16.5686057 35.5762157 20.9240358 31.7828213 12.7956512 31.7828213"></polygon>
                    <polygon id="Fill-29" fill="#77BC1F" points="15.4427979 35.4255287 15.4761968 44.4573776 11.1735368 48.7610952 11.1777673 53.2866147 22.0991848 42.4841431 26.2043463 42.4410769 42.1614167 28.0754923 47.0189426 30.6552236 49.7612092 27.7383264 47.5762577 18.1711626 32.6465353 18.1711626"></polygon>
                    <polygon id="Fill-31" fill="#77BC1F" points="45.8529449 19.9144281 49.2994815 16.7558694 49.2545044 10.7629757 47.0835805 15.7425868 41.7172791 18.4387977"></polygon>
                    <polygon id="Fill-33" fill="#77BC1F" points="37.9214575 39.7660421 33.7924715 35.5892917 26.383943 35.1521588 26.8733472 25.1864654 36.793245 21.8295345 41.1395461 32.7125599 41.1395461 41.3824744 35.0344626 47.2803102 35.0669708 42.940667"></polygon>
                    <polygon id="Fill-35" fill="#609E11" points="22.0260413 42.4707993 29.3399398 35.5761934 33.7191944 35.5761934 26.1312029 42.4279562"></polygon>
                    <polygon id="Fill-37" fill="#609E11" points="35.0573965 43.1162565 37.9094339 39.9416317 40.3548963 42.2656436 35.0275602 47.4558997"></polygon>
                    <polygon id="Fill-39" fill="#609E11" points="38.3377405 25.6790042 42.0915464 25.678781 47.0441476 30.7175245 42.1866217 28.13757 40.0891752 30.0597053"></polygon>
                    <polygon id="Fill-41" fill="#609E11" points="47.6486219 18.3050248 45.8392959 19.900705 49.7609865 27.7327256"></polygon>
                    <polygon id="Fill-43" fill="#609E11" points="19.3703445 31.9260777 15.8298459 35.4742403 12.7956735 31.8847966"></polygon>
                    <polygon id="Fill-45" fill="#609E11" points="9.14941185 35.5464487 7.35856658 37.4136913 5.12106762 35.5239115"></polygon>
                    <polygon id="Fill-47" fill="#609E11" points="15.5587587 44.4552132 15.5672197 49.0266997 11.2603292 53.2866817 11.2558761 48.7604927"></polygon>
                </g>
            </g>
        </g>
    </g>
</svg>