<?xml version="1.0" encoding="UTF-8"?>
<svg width="31px" height="31px" viewBox="0 0 31 31" version="1.1" xmlns="http://www.w3.org/2000/svg" xmlns:xlink="http://www.w3.org/1999/xlink">
    <!-- Generator: Sketch 46.2 (44496) - http://www.bohemiancoding.com/sketch -->
    <title>phone-call</title>
    <desc>Created with Sketch.</desc>
    <defs></defs>
    <g id="Welcome" stroke="none" stroke-width="1" fill="none" fill-rule="evenodd">
        <g id="assets" transform="translate(-452.000000, -4035.000000)" fill-rule="nonzero" fill="#788089">
            <g id="phone-call" transform="translate(452.000000, 4035.000000)">
                <path d="M24.6190673,19.1878931 C23.9807417,18.5262055 23.2108025,18.1724319 22.3947986,18.1724319 C21.5853754,18.1724319 20.8088555,18.5196541 20.1442072,19.1813417 L18.0647133,21.245021 C17.8936157,21.1533019 17.7225181,21.0681342 17.5580012,20.9829665 C17.3210969,20.8650419 17.0973538,20.7536688 16.9065142,20.6357442 C14.9586339,19.4040881 13.1884319,17.7990042 11.4906173,15.7222222 C10.6680327,14.6871069 10.1152559,13.8157757 9.7138346,12.9313417 C10.2534501,12.4399895 10.7535815,11.9289832 11.2405516,11.437631 C11.4248105,11.2541929 11.6090695,11.0642034 11.7933284,10.8807652 C13.1752705,9.50497904 13.1752705,7.72300839 11.7933284,6.34722222 L9.9968037,4.55870021 C9.79280272,4.35560797 9.58222107,4.14596436 9.38480077,3.93632075 C8.98996016,3.53013627 8.57537753,3.11084906 8.14763355,2.7177673 C7.50930791,2.08883648 6.74594941,1.75471698 5.94310686,1.75471698 C5.1402643,1.75471698 4.36374445,2.08883648 3.70567678,2.7177673 C3.6990961,2.72431866 3.6990961,2.72431866 3.69251543,2.73087002 L1.45508535,4.97798742 C0.612758737,5.81656184 0.132369338,6.83857442 0.0270785112,8.02437107 C-0.130857729,9.93736897 0.435080466,11.7193396 0.869405128,12.8854822 C1.93547475,15.7484277 3.52799851,18.4017296 5.9036228,21.245021 C8.78595919,24.6713836 12.2539758,27.3770964 16.2155432,29.283543 C17.7290988,29.9976415 19.7493666,30.8427673 22.0065387,30.9868973 C22.1447329,30.9934486 22.2895078,31 22.4211213,31 C23.9412576,31 25.2179089,30.4562369 26.2181717,29.3752621 C26.2247524,29.3621593 26.2379138,29.355608 26.2444944,29.3425052 C26.5866896,28.9297694 26.9815302,28.5563417 27.3961129,28.1567086 C27.679082,27.8881027 27.9686317,27.6063941 28.2516008,27.3115828 C28.9030878,26.6367925 29.245283,25.8506289 29.245283,25.0448113 C29.245283,24.2324423 28.8965072,23.4528302 28.2318588,22.7976939 L24.6190673,19.1878931 Z M26.9749496,26.086478 C26.9683689,26.086478 26.9683689,26.0930294 26.9749496,26.086478 C26.7183032,26.3616352 26.4550761,26.610587 26.172107,26.8857442 C25.744363,27.2919287 25.3100384,27.7177673 24.9020364,28.1960168 C24.2373881,28.9035639 23.4542875,29.2376834 22.427702,29.2376834 C22.3289918,29.2376834 22.223701,29.2376834 22.1249908,29.2311321 C20.1705299,29.1066562 18.3542631,28.3466981 16.992063,27.6981132 C13.2674,25.9030398 9.9968037,23.3545597 7.27898422,20.1247379 C5.03497347,17.4321279 3.53457919,14.9426101 2.54089701,12.2696541 C1.92889407,10.6383648 1.70515107,9.36740042 1.80386122,8.16850105 C1.86966798,7.40199161 2.16579844,6.76650943 2.7119946,6.22274633 L4.95600535,3.98873166 C5.27845851,3.68736897 5.6206537,3.52358491 5.95626821,3.52358491 C6.37085084,3.52358491 6.70646535,3.77253669 6.91704701,3.98218029 C6.92362768,3.98873166 6.93020836,3.99528302 6.93678904,4.00183438 C7.33821031,4.37526205 7.71988956,4.76179245 8.12131084,5.1745283 C8.32531182,5.38417191 8.53589347,5.59381551 8.74647513,5.81001048 L10.5429999,7.59853249 C11.2405516,8.29297694 11.2405516,8.93501048 10.5429999,9.62945493 C10.3521602,9.81944444 10.1679013,10.009434 9.97706167,10.1928721 C9.42428483,10.7562893 8.89783069,11.2803983 8.32531182,11.7914046 C8.31215047,11.8045073 8.29898911,11.8110587 8.29240843,11.8241614 C7.72647024,12.3875786 7.83176107,12.9378931 7.95021325,13.3113208 C7.95679392,13.3309748 7.9633746,13.3506289 7.96995528,13.370283 C8.43718332,14.4971174 9.09525099,15.5584382 10.0955138,16.8228512 L10.1020945,16.8294025 C11.9183613,19.0568658 13.8333382,20.7929769 15.9457354,22.1229036 C16.2155432,22.293239 16.4919316,22.4308176 16.7551587,22.5618449 C16.992063,22.6797694 17.215806,22.7911426 17.4066457,22.9090671 C17.4329684,22.9221698 17.4592911,22.9418239 17.4856138,22.9549266 C17.7093568,23.0662998 17.9199384,23.1187107 18.1371008,23.1187107 C18.6832969,23.1187107 19.0254921,22.7780398 19.1373636,22.6666667 L21.387955,20.4261006 C21.6116981,20.2033543 21.9670546,19.9347484 22.3816372,19.9347484 C22.7896392,19.9347484 23.1252537,20.1902516 23.3292547,20.4129979 C23.3358354,20.4195493 23.3358354,20.4195493 23.342416,20.4261006 L26.9683689,24.0359015 C27.6461786,24.7041405 27.6461786,25.3920335 26.9749496,26.086478 Z" id="Shape"></path>
                <path d="M16.5207363,7.01948073 C18.2378561,7.30787649 19.7976825,8.12062816 21.0429221,9.36597345 C22.2881617,10.6113188 23.0942904,12.1712776 23.3892156,13.8885432 C23.4613084,14.3211369 23.8348803,14.6226415 24.2608833,14.6226415 C24.3133144,14.6226415 24.3591917,14.6160871 24.4116228,14.6095326 C24.8966109,14.5308792 25.2177516,14.0720678 25.1391049,13.5870386 C24.7851947,11.5092783 23.8021108,9.61504251 22.3012695,8.11407371 C20.8004281,6.6131049 18.9063532,5.62993756 16.8287693,5.27599731 C16.3437812,5.19734393 15.8915627,5.51851192 15.8063621,5.9969867 C15.7211615,6.47546147 16.0357483,6.94082735 16.5207363,7.01948073 Z" id="Shape"></path>
                <path d="M30.9866055,13.6070257 C30.4073916,10.2086191 28.8064185,7.11619931 26.3463865,4.65528418 C23.8863545,2.19436904 20.7950445,0.592821097 17.3978574,0.0133992799 C16.9227719,-0.0712353676 16.4737184,0.254282507 16.3891142,0.729538605 C16.3110179,1.21130506 16.6299109,1.66051973 17.1115045,1.74515437 C20.1442423,2.25947262 22.9101513,3.69826162 25.1098625,5.8922521 C27.3095736,8.09275294 28.7413382,10.8596549 29.2554719,13.8934815 C29.3270601,14.3231651 29.6980173,14.6226415 30.1210387,14.6226415 C30.1731029,14.6226415 30.218659,14.6161312 30.2707232,14.6096208 C30.7458087,14.5380069 31.0712098,14.0822818 30.9866055,13.6070257 Z" id="Shape"></path>
            </g>
        </g>
    </g>
</svg>