<?xml version="1.0" encoding="UTF-8"?>
<svg width="61px" height="53px" viewBox="0 0 61 53" version="1.1" xmlns="http://www.w3.org/2000/svg" xmlns:xlink="http://www.w3.org/1999/xlink">
    <!-- Generator: Sketch 46.2 (44496) - http://www.bohemiancoding.com/sketch -->
    <title>pick1</title>
    <desc>Created with Sketch.</desc>
    <defs></defs>
    <g id="Welcome" stroke="none" stroke-width="1" fill="none" fill-rule="evenodd">
        <g id="assets" transform="translate(-142.000000, -1832.000000)" fill-rule="nonzero" fill="#92278F">
            <g id="graph" transform="translate(142.000000, 1832.000000)">
                <path d="M59.9833333,51.0487805 L59.9833333,13 L47.7833333,13 L47.7833333,51.0487805 L44.7333333,51.0487805 L44.7333333,20.804878 L32.5333333,20.804878 L32.5333333,51.0487805 L29.4833333,51.0487805 L29.4833333,28.6097561 L17.2833333,28.6097561 L17.2833333,51.0487805 L14.2333333,51.0487805 L14.2333333,37.3902439 L2.03333333,37.3902439 L2.03333333,51.0487805 L1.01666667,51.0487805 C0.455466667,51.0487805 0,51.484878 0,52.0243902 C0,52.5639024 0.455466667,53 1.01666667,53 L2.03333333,53 L14.2333333,53 L17.2833333,53 L29.4833333,53 L32.5333333,53 L44.7333333,53 L47.7833333,53 L59.9833333,53 C60.5445333,53 61,52.5639024 61,52.0243902 C61,51.484878 60.5445333,51.0487805 59.9833333,51.0487805 Z M4.06666667,51.0487805 L4.06666667,39.3414634 L12.2,39.3414634 L12.2,51.0487805 L4.06666667,51.0487805 Z M19.3166667,51.0487805 L19.3166667,30.5609756 L27.45,30.5609756 L27.45,51.0487805 L19.3166667,51.0487805 Z M34.5666667,51.0487805 L34.5666667,22.7560976 L42.7,22.7560976 L42.7,51.0487805 L34.5666667,51.0487805 Z M49.8166667,51.0487805 L49.8166667,14.9512195 L57.95,14.9512195 L57.95,51.0487805 L49.8166667,51.0487805 Z" id="Shape"></path>
                <path d="M8.02647651,25 C8.19973635,25 8.377097,24.9575605 8.53805436,24.8677466 L45.7212545,4.20068777 L43.3940367,9.12564592 C43.1592645,9.6220896 43.3868602,10.2073602 43.9025389,10.4323883 C44.0399165,10.4935802 44.1844706,10.5212152 44.3269742,10.5212152 C44.7165526,10.5212152 45.0887024,10.3060567 45.260937,9.9428534 L48.9127211,2.21491306 C48.9239984,2.19023892 48.921948,2.16359085 48.9311748,2.13792975 C48.9506538,2.08562057 48.9660319,2.03528533 48.9762839,1.98001526 C48.9814099,1.95238022 48.9978132,1.92968001 48.9998637,1.90105801 C49.0008889,1.88921443 48.9957628,1.87934477 48.996788,1.86750118 C48.9988384,1.82999649 48.9947376,1.7954527 48.9926872,1.75794801 C48.9896116,1.7036649 48.9803847,1.65234269 48.9680823,1.59805959 C48.9598806,1.56055489 48.9578302,1.52206324 48.9445025,1.48554551 C48.9322001,1.45001475 48.9106707,1.42040578 48.8942674,1.38586199 C48.8809397,1.36316178 48.8809397,1.33651371 48.8665869,1.31282654 C48.852234,1.28913937 48.827629,1.27532185 48.8112257,1.25262164 C48.7896964,1.22202571 48.7732931,1.18945584 48.747663,1.16182081 C48.7210076,1.13221184 48.6871758,1.11148556 48.6564196,1.08483749 C48.6143862,1.04831977 48.5723527,1.01476294 48.5251932,0.985153972 C48.4934118,0.965414661 48.4647061,0.943701419 48.4298491,0.926923004 C48.4185718,0.921988177 48.4124206,0.912118521 48.4011433,0.907183693 C48.3755131,0.896327072 48.3478326,0.898301003 48.3222024,0.889418313 C48.2658161,0.869679002 48.210455,0.855861484 48.1520182,0.845991828 C48.1253628,0.841057001 48.1038335,0.826252517 48.076153,0.824278586 L39.2983383,0.00509717046 C38.7293489,-0.0501729009 38.2331492,0.350535117 38.1788132,0.891392244 C38.1234521,1.4342233 38.5366102,1.91684946 39.0994483,1.96915864 L44.6929728,2.49126342 L7.51284826,23.1583223 C7.02177453,23.4307248 6.85466594,24.0347477 7.13762282,24.5065172 C7.32728595,24.8233332 7.6717552,25 8.02647651,25 Z" id="Shape"></path>
            </g>
        </g>
    </g>
</svg>