<?xml version="1.0" encoding="UTF-8"?>
<svg width="34px" height="50px" viewBox="0 0 34 50" version="1.1" xmlns="http://www.w3.org/2000/svg" xmlns:xlink="http://www.w3.org/1999/xlink">
    <!-- Generator: Sketch 46.2 (44496) - http://www.bohemiancoding.com/sketch -->
    <title>pick4</title>
    <desc>Created with Sketch.</desc>
    <defs></defs>
    <g id="Welcome" stroke="none" stroke-width="1" fill="none" fill-rule="evenodd">
        <g id="assets" transform="translate(-307.000000, -1983.000000)" fill-rule="nonzero" fill="#92278F">
            <g id="flash" transform="translate(307.000000, 1983.000000)">
                <path d="M33.0846641,15.9903008 C32.6995384,15.6912779 32.244752,15.5227236 31.7614989,15.4991885 C31.7230252,15.494501 31.6837743,15.4920596 31.6440376,15.4920596 L22.8072299,15.4920596 L29.3584469,3.51464157 C29.6617673,2.95956453 29.7318167,2.31894078 29.5556732,1.7108365 C29.379724,1.10273222 28.9785676,0.599998828 28.4261396,0.295116611 C28.1050396,0.11796852 27.7455631,0.018066371 27.3796743,0.00400389843 C27.3503332,0.00136718483 27.320895,0 27.290971,0 L11.6594738,0 C10.6411837,0 9.74657287,0.647166705 9.42216958,1.61405935 L0.163122698,25.281103 C-0.0662621951,25.8709456 -0.0533404709,26.5151826 0.199458975,27.0952596 C0.452258421,27.6753366 0.914720128,28.1217224 1.50105551,28.3519954 C1.74870569,28.4494562 2.00733449,28.5035576 2.2720841,28.5134209 C2.30103654,28.5160576 2.33028044,28.5173271 2.35981581,28.5173271 L11.286104,28.5173271 L6.41111638,47.0264707 C6.08039797,48.2903354 6.83413283,49.589161 8.09142631,49.9216798 C8.28797253,49.9736329 8.49025095,50 8.69243221,50 C9.44723579,50 10.1591936,49.6338874 10.6017384,49.0195332 L33.5094293,19.3134388 C34.3037753,18.2796518 34.1131556,16.7890297 33.0846641,15.9903008 Z M31.9726185,18.118324 L9.05492058,47.8374066 C9.04646802,47.848344 9.03820978,47.8595745 9.030243,47.8709026 C8.93308718,48.0086953 8.75276598,48.0770545 8.58604659,48.032914 C8.36482279,47.974418 8.23220509,47.7459028 8.2900128,47.5249072 L13.4876549,27.790766 C13.5647966,27.4977979 13.5022283,27.1853961 13.3183123,26.9451622 C13.1343963,26.7049283 12.8499241,26.5643036 12.5484496,26.5643036 L2.42617323,26.5643036 C2.35398646,26.5593231 2.2795651,26.5608856 2.20864135,26.5330536 C2.06912559,26.4782686 2.00509991,26.3708469 1.97935361,26.3116674 C1.95351017,26.2524878 1.91843691,26.1322732 1.97216408,25.9939922 L11.2404408,2.30341347 C11.2480189,2.28397991 11.2550141,2.2644487 11.2613293,2.24462452 C11.3076726,2.09960527 11.4487429,1.95321884 11.6594738,1.95321884 L27.2250994,1.95321884 C27.247348,1.95478134 27.2695967,1.95556259 27.2921369,1.95556259 C27.3617976,1.95556259 27.428738,1.97304302 27.4909177,2.0073203 C27.6222724,2.07978109 27.671919,2.19472228 27.68999,2.25683153 C27.7079638,2.31884313 27.7272978,2.44267101 27.6554996,2.57421372 L20.3130456,15.9983086 C20.1475893,16.3008471 20.1532243,16.6687174 20.3281048,16.9658848 C20.5029853,17.2630522 20.8208791,17.4453761 21.1643249,17.4453761 L31.5542656,17.4453761 C31.5840924,17.4481105 31.6143079,17.4495753 31.6448148,17.4495753 C31.7088405,17.4495753 31.8046361,17.4646143 31.896837,17.5361962 C32.0775468,17.6763327 32.1110656,17.9382462 31.9726185,18.118324 Z" id="Shape"></path>
                <path d="M16.020261,3 L12.979739,3 C12.4386291,3 12,3.4477 12,4 C12,4.5523 12.4386291,5 12.979739,5 L16.020261,5 C16.5613709,5 17,4.5523 17,4 C17,3.4477 16.5613709,3 16.020261,3 Z" id="Shape"></path>
                <path d="M19.0132715,3 L18.9867285,3 C18.441857,3 18,3.4477 18,4 C18,4.5523 18.441857,5 18.9867285,5 L19.0132715,5 C19.5582416,5 20,4.5523 20,4 C20,3.4477 19.5582416,3 19.0132715,3 Z" id="Shape"></path>
            </g>
        </g>
    </g>
</svg>