<?xml version="1.0" encoding="UTF-8"?>
<svg width="57px" height="57px" viewBox="0 0 57 57" version="1.1" xmlns="http://www.w3.org/2000/svg" xmlns:xlink="http://www.w3.org/1999/xlink">
    <!-- Generator: Sketch 46.2 (44496) - http://www.bohemiancoding.com/sketch -->
    <title>pick3</title>
    <desc>Created with Sketch.</desc>
    <defs></defs>
    <g id="Welcome" stroke="none" stroke-width="1" fill="none" fill-rule="evenodd">
        <g id="assets" transform="translate(-142.000000, -1979.000000)" fill-rule="nonzero" fill="#92278F">
            <g id="24-hours" transform="translate(142.000000, 1979.000000)">
                <path d="M25.3333333,33.6 L20.589,33.6 C20.9598889,32.64494 21.726,32.2186933 22.8343333,31.6020467 C24.5923333,30.6237533 27,29.28404 27,25.1 C27,22.28786 24.757,20 22,20 C19.243,20 17,22.28786 17,25.1 C17,26.0388533 17.7462222,26.8 18.6666667,26.8 C19.5871111,26.8 20.3333333,26.0388533 20.3333333,25.1 C20.3333333,24.16262 21.081,23.4 22,23.4 C22.919,23.4 23.6888889,24.16262 23.6888889,25.1 C23.6888889,27.2658 22.804,27.74588 21.238,28.6171867 C19.4494444,29.6123667 17,30.9753133 17,35.3 C17,36.2388533 17.7462222,37 18.6666667,37 L25.3333333,37 C26.2537778,37 27,36.2388533 27,35.3 C27,34.3611467 26.2537778,33.6 25.3333333,33.6 Z" id="Shape"></path>
                <path d="M41.375,26.8 L39.75,26.8 L39.75,21.7 C39.75,20.7611467 39.0224333,20 38.125,20 C37.2275667,20 36.5,20.7611467 36.5,21.7 L36.5,26.8 L33.25,26.8 L33.25,21.7 C33.25,20.7611467 32.5224333,20 31.625,20 C30.7275667,20 30,20.7611467 30,21.7 L30,28.5 C30,29.4388533 30.7275667,30.2 31.625,30.2 L36.5,30.2 L36.5,35.3 C36.5,36.2388533 37.2275667,37 38.125,37 C39.0224333,37 39.75,36.2388533 39.75,35.3 L39.75,30.2 L41.375,30.2 C42.2724333,30.2 43,29.4388533 43,28.5 C43,27.5611467 42.2724333,26.8 41.375,26.8 Z" id="Shape"></path>
                <path d="M55.3300781,26.9414062 C54.4078359,26.9414062 53.6824219,27.6890859 53.6824219,28.6113281 C53.6824219,42.423252 42.3233906,53.6824219 28.3886719,53.6824219 C20.4820371,53.6824219 13.0482129,49.8621973 8.3497207,43.6183594 C11.8739238,43.6183594 12.1504629,43.6598848 12.5942168,43.3729922 C16.815668,47.9072754 22.4775937,50.3203125 28.3886719,50.3203125 C40.3561113,50.3203125 50.3203125,40.3952988 50.3203125,28.3886719 C50.3203125,24.1901543 49.104832,20.1658652 46.8383027,16.6992187 L51.9902344,16.6992187 C52.9124766,16.6992187 53.6601562,15.9515391 53.6601562,15.0292969 L53.6601562,8.34960937 C53.6601562,7.42736719 52.9124766,6.6796875 51.9902344,6.6796875 C51.0679922,6.6796875 50.3203125,7.42736719 50.3203125,8.34960937 L50.3203125,10.1085937 C44.951625,3.77970117 36.9252012,0 28.3886719,0 C12.7047656,0 0,12.6879551 0,28.3886719 C0,29.3109141 0.747679687,30.0585937 1.66992187,30.0585937 C2.59216406,30.0585937 3.31757812,29.3109141 3.31757812,28.3886719 C3.31757812,14.576748 14.576748,3.31757812 28.3886719,3.31757812 C36.4172109,3.31757812 43.9318594,7.13780273 48.6470508,13.3816406 C45.0338965,13.3816406 44.943832,13.281334 44.4096797,13.6246699 C40.1328984,9.09528516 34.3812422,6.6796875 28.3886719,6.6796875 C16.4183379,6.6796875 6.6796875,16.4183379 6.6796875,28.3886719 C6.6796875,32.6652305 7.90852734,36.7705664 10.1967656,40.3007812 L5.00976562,40.3007812 C4.08752344,40.3007812 3.33984375,41.0484609 3.33984375,41.9707031 L3.33984375,48.6503906 C3.33984375,49.5726328 4.08752344,50.3203125 5.00976562,50.3203125 C5.93200781,50.3203125 6.6796875,49.5726328 6.6796875,48.6503906 L6.6796875,46.904543 C12.0860039,53.3141484 19.9975371,57 28.3886719,57 C43.9634766,57 57,44.4176953 57,28.6113281 C57,27.6890859 56.2523203,26.9414062 55.3300781,26.9414062 Z M9.99726562,28.3886719 C9.99726562,18.2599277 18.2599277,9.99726562 28.3886719,9.99726562 C38.6402109,9.99726562 47.0027344,18.2599277 47.0027344,28.3886719 C47.0027344,38.4664277 38.4664277,47.0027344 28.3886719,47.0027344 C18.2599277,47.0027344 9.99726562,38.6402109 9.99726562,28.3886719 Z" id="Shape"></path>
            </g>
        </g>
    </g>
</svg>