<?xml version="1.0" encoding="UTF-8"?>
<svg width="46px" height="58px" viewBox="0 0 46 58" version="1.1" xmlns="http://www.w3.org/2000/svg" xmlns:xlink="http://www.w3.org/1999/xlink">
    <!-- Generator: Sketch 46.2 (44496) - http://www.bohemiancoding.com/sketch -->
    <title>pick2</title>
    <desc>Created with Sketch.</desc>
    <defs></defs>
    <g id="Welcome" stroke="none" stroke-width="1" fill="none" fill-rule="evenodd">
        <g id="assets" transform="translate(-300.000000, -1831.000000)" fill-rule="nonzero" fill="#92278F">
            <g id="plug" transform="translate(300.000000, 1831.000000)">
                <path d="M33.5660842,51 L12.4356862,51 C5.57870834,51 0,45.468989 0,38.6684792 L0,23.6996318 C0,21.6593033 1.67308136,20 3.73035178,20 L42.2714187,20 C44.3269186,20 46,21.6593033 46,23.6996318 L46,38.6684792 C46,45.4672331 40.4230621,51 33.5660842,51 Z M3.73035178,21.7541206 C2.65037334,21.7541206 1.77045647,22.6267913 1.77045647,23.697876 L1.77045647,38.6667233 C1.77045647,44.4979892 6.55422985,49.2423676 12.4356862,49.2423676 L33.5660842,49.2423676 C39.4457701,49.2423676 44.2295435,44.4979892 44.2295435,38.6667233 L44.2295435,23.697876 C44.2295435,22.6267913 43.3513971,21.7541206 42.2714187,21.7541206 L3.73035178,21.7541206 Z" id="Shape"></path>
                <path d="M13.1303201,22 C12.6492979,22 12.2589031,21.6011009 12.2589031,21.1096001 L12.2589031,4.45199935 C12.2589031,2.97927797 11.0859759,1.78079974 9.64465231,1.78079974 L9.35708471,1.78079974 C7.91576109,1.78079974 6.74283389,2.97927797 6.74283389,4.45199935 L6.74283389,21.1096001 C6.74283389,21.6011009 6.3524391,22 5.87141694,22 C5.39039479,22 5,21.6011009 5,21.1096001 L5,4.45199935 C5,1.99627651 6.95371679,0 9.35708471,0 L9.64290947,0 C12.0462774,0 13.9999942,1.99627651 13.9999942,4.45199935 L13.9999942,21.1096001 C14.001737,21.6011009 13.6113422,22 13.1303201,22 Z" id="Shape"></path>
                <path d="M40.1285825,22 C39.64756,22 39.257165,21.6011009 39.257165,21.1096001 L39.257165,4.45199935 C39.257165,2.97927797 38.084237,1.78079974 36.6429125,1.78079974 L36.3570875,1.78079974 C34.915763,1.78079974 33.742835,2.97927797 33.742835,4.45199935 L33.742835,21.1096001 C33.742835,21.6011009 33.35244,22 32.8714175,22 C32.390395,22 32,21.6011009 32,21.1096001 L32,4.45199935 C32,1.99627651 33.953718,0 36.3570875,0 L36.6429125,0 C39.046282,0 41,1.99627651 41,4.45199935 L41,21.1096001 C41,21.6011009 40.609605,22 40.1285825,22 Z" id="Shape"></path>
                <path d="M30.1180621,58 L16.8819379,58 C16.3951082,58 16,57.587477 16,57.0791897 L16,50.9208103 C16,50.412523 16.3951082,50 16.8819379,50 L30.1180621,50 C30.6048918,50 31,50.412523 31,50.9208103 L31,57.0791897 C31,57.587477 30.6048918,58 30.1180621,58 Z M17.7638758,56.1583794 L29.2361242,56.1583794 L29.2361242,51.8416206 L17.7638758,51.8416206 L17.7638758,56.1583794 L17.7638758,56.1583794 Z" id="Shape"></path>
                <polygon id="Shape" points="20.5391549 42 22.5926761 35.9670605 20 35.1756776 24.8608451 29 23.4073239 34.3951355 26 35.1865184"></polygon>
                <path d="M20.4425079,42 C20.2895856,42 20.1366633,41.9624165 19.9995605,41.8838329 C19.6321953,41.6754156 19.4704844,41.2432058 19.6163758,40.8537045 L21.4285933,36.0105634 L19.6392263,35.5134368 C19.3527166,35.4348532 19.1259697,35.2196025 19.0380833,34.9428516 C18.9519546,34.6661007 19.0134751,34.3637246 19.2068252,34.1416406 L24.2638084,28.3025379 C24.5309831,27.9933285 24.9862346,27.9130366 25.3500843,28.0992455 C25.7156917,28.2888711 25.8967377,28.7022892 25.7807276,29.0900821 L24.5116481,33.367763 L26.3607779,33.881973 C26.6490452,33.9605566 26.8757921,34.1775157 26.9619208,34.455975 C27.0498072,34.7361426 26.9830135,35.0385186 26.7879057,35.2588943 L21.1086868,41.7010407 C20.9381872,41.8957913 20.6903476,42 20.4425079,42 Z M23.0861307,34.7429759 C23.200383,34.8215595 23.2953003,34.9274765 23.3603363,35.0521853 C23.4710731,35.2640193 23.4868927,35.5100201 23.4025217,35.7321042 L22.9209043,37.0219001 L24.5643799,35.1581023 L23.1863212,34.7754343 C23.1511667,34.768601 23.1177698,34.7566426 23.0861307,34.7429759 Z M21.4268356,34.2338909 L22.8171983,34.6199755 C22.8523529,34.6285172 22.883992,34.6404756 22.9173888,34.6541423 C22.8101674,34.5806837 22.722281,34.4833084 22.6572451,34.370558 C22.5447505,34.1723907 22.5166269,33.9383482 22.5816628,33.7196808 L22.9507857,32.47601 L21.4268356,34.2338909 Z" id="Shape"></path>
            </g>
        </g>
    </g>
</svg>