<?xml version="1.0" encoding="UTF-8"?>
<svg width="130px" height="198px" viewBox="0 0 130 198" version="1.1" xmlns="http://www.w3.org/2000/svg" xmlns:xlink="http://www.w3.org/1999/xlink">
    <!-- Generator: Sketch 46.2 (44496) - http://www.bohemiancoding.com/sketch -->
    <title>place-localizer copy</title>
    <desc>Created with Sketch.</desc>
    <defs></defs>
    <g id="Welcome" stroke="none" stroke-width="1" fill="none" fill-rule="evenodd" opacity="0.253623188">
        <g id="assets" transform="translate(-747.000000, -5247.000000)" fill-rule="nonzero" fill="#E8EAEC">
            <g id="place-localizer-copy" transform="translate(747.000000, 5247.000000)">
                <path d="M65.0004048,0 C29.1588407,0 0,29.0886245 0,64.8437878 C0,99.2068898 59.0714054,192.188498 61.585978,196.12991 C62.3291775,197.294473 63.6168232,198 65.0004048,198 C66.3839864,198 67.6716321,197.294473 68.4144268,196.12991 C70.9289994,192.188498 130,99.2064857 130,64.8437878 C130,29.0886245 100.841159,0 65.0004048,0 Z M65.0004048,186.332951 C59.654307,177.700555 48.8050518,159.830449 38.0618523,140.030045 C18.4581444,103.897873 8.09625972,77.8992612 8.09625972,64.8437878 C8.09585492,33.5448367 33.6232999,8.08163265 65.0004048,8.08163265 C96.3775097,8.08163265 121.904145,33.5448367 121.904145,64.8437878 C121.904145,77.8992612 111.541856,103.897873 91.9385525,140.030045 C81.195353,159.830045 70.3460978,177.700555 65.0004048,186.332951 Z" id="Shape"></path>
                <path d="M65.5,31 C48.6822167,31 35,44.2340292 35,60.5005988 C35,76.7667693 48.6822167,90 65.5,90 C82.3177833,90 96,76.7667693 96,60.5005988 C96,44.2340292 82.3177833,31 65.5,31 Z M65.5,82.0150286 C53.1107176,82.0150286 43.0306481,72.363677 43.0306481,60.5001996 C43.0306481,48.636323 53.1107176,38.984173 65.5,38.984173 C77.8892824,38.984173 87.9693519,48.636323 87.9693519,60.5001996 C87.9693519,72.363677 77.8896839,82.0150286 65.5,82.0150286 Z" id="Shape"></path>
            </g>
        </g>
    </g>
</svg>