<?xml version="1.0" encoding="UTF-8"?>
<svg width="35px" height="30px" viewBox="0 0 35 30" version="1.1" xmlns="http://www.w3.org/2000/svg" xmlns:xlink="http://www.w3.org/1999/xlink">
    <!-- Generator: Sketch 46.2 (44496) - http://www.bohemiancoding.com/sketch -->
    <title>telegram</title>
    <desc>Created with Sketch.</desc>
    <defs></defs>
    <g id="Welcome" stroke="none" stroke-width="1" fill="none" fill-rule="evenodd">
        <g id="assets" transform="translate(-450.000000, -4152.000000)" fill="#788089">
            <path d="M461.30147,4167.77075 L477.062733,4158.21411 C477.346278,4158.04288 477.637685,4158.41983 477.394409,4158.64197 L464.386387,4170.54548 C463.929141,4170.96442 463.634398,4171.52528 463.550764,4172.13399 L463.107815,4175.36661 C463.0492,4175.79822 462.433265,4175.84091 462.312223,4175.42337 L460.608096,4169.52838 C460.412951,4168.85587 460.697448,4168.13785 461.30147,4167.77075 M450.618274,4166.3849 L458.683091,4169.34823 L461.804463,4179.23092 C462.004136,4179.86402 462.790436,4180.09789 463.312253,4179.67801 L467.807744,4176.07008 C468.27881,4175.69219 468.950262,4175.67319 469.442534,4176.02528 L477.550716,4181.82058 C478.108989,4182.21982 478.899816,4181.91863 479.039682,4181.25456 L484.979344,4153.12792 C485.132315,4152.4024 484.408443,4151.7972 483.706492,4152.06438 L450.608743,4164.63407 C449.791944,4164.94441 449.799092,4166.08278 450.618274,4166.3849" id="Fill-1"></path>
        </g>
    </g>
</svg>