<?xml version="1.0" encoding="UTF-8"?>
<svg width="104px" height="75px" viewBox="0 0 104 75" version="1.1" xmlns="http://www.w3.org/2000/svg" xmlns:xlink="http://www.w3.org/1999/xlink">
    <!-- Generator: Sketch 46.2 (44496) - http://www.bohemiancoding.com/sketch -->
    <title>truck copy</title>
    <desc>Created with Sketch.</desc>
    <defs></defs>
    <g id="Welcome" stroke="none" stroke-width="1" fill="none" fill-rule="evenodd">
        <g id="assets" transform="translate(-1015.000000, -5284.000000)" fill-rule="nonzero" fill="#92278F">
            <g id="truck-copy" transform="translate(1015.000000, 5284.000000)">
                <path d="M24.5,54 C18.709209,54 14,58.709209 14,64.5 C14,70.290791 18.709209,75 24.5,75 C30.290791,75 35,70.290791 35,64.5 C35,58.709209 30.2905859,54 24.5,54 Z M24.5,71.4999316 C20.6394043,71.4999316 17.5000684,68.3603906 17.5000684,64.5 C17.5000684,60.6394043 20.6396094,57.5000684 24.5,57.5000684 C28.3603906,57.5000684 31.4999316,60.6396094 31.4999316,64.5 C31.4999316,68.3603906 28.3603906,71.4999316 24.5,71.4999316 Z" id="Shape"></path>
                <path d="M83.5,54 C77.709209,54 73,58.709209 73,64.5 C73,70.290791 77.709209,75 83.5,75 C89.290791,75 94,70.290791 94,64.5 C94,58.709209 89.290791,54 83.5,54 Z M83.5,71.4999316 C79.6394043,71.4999316 76.5000684,68.3603906 76.5000684,64.5 C76.5000684,60.6394043 79.6396094,57.5000684 83.5,57.5000684 C87.3605957,57.5000684 90.4999316,60.6396094 90.4999316,64.5 C90.4999316,68.3603906 87.3605957,71.4999316 83.5,71.4999316 Z" id="Shape"></path>
                <path d="M103.725523,44.1694792 L88.1799585,19.7990408 C87.862165,19.3010937 87.3146292,19 86.7272173,19 L67.7272175,19 C66.7720154,19 66,19.7798655 66,20.7406727 L66,64.2591233 C66,65.2217665 66.7720154,65.999796 67.7272175,65.999796 L74.63629,65.999796 L74.63629,62.5182465 L69.454435,62.5182465 L69.454435,22.4815495 L85.7841602,22.4815495 L100.545565,45.6229297 L100.545565,62.5186545 L91.9090723,62.5186545 L91.9090723,66 L102.272782,66 C103.227984,66 104,65.2219705 104,64.2593273 L104,45.1111111 C104.000202,44.7786024 103.905269,44.4495616 103.725523,44.1694792 Z" id="Shape"></path>
                <path d="M76.4998718,41.545565 L76.4998718,29.4546375 L90.4999744,29.4546375 L90.4999744,26 L74.7499359,26 C73.7821699,26 73,26.7738372 73,27.7272175 L73,43.2727825 C73,44.2279846 73.7821699,45 74.7499359,45 L101,45 L101,41.5453625 L76.4998718,41.5453625 L76.4998718,41.545565 Z" id="Shape"></path>
                <path d="M67.2750657,7 L1.7249343,7 C0.772814231,7 0,7.77742621 0,8.73522833 L0,64.2647717 C0,65.224404 0.772814231,66 1.7249343,66 L15.5250152,66 L15.5250152,62.52934 L3.45007075,62.52934 L3.45007075,10.4704567 L65.5501314,10.4704567 L65.5501314,62.52934 L32.7749646,62.52934 L32.7749646,66 L67.2750657,66 C68.2290051,66 69,65.224404 69,64.2647717 L69,8.73522833 C69,7.77742621 68.2290051,7 67.2750657,7 Z" id="Shape"></path>
                <rect id="Rectangle-path" x="2" y="56" width="10" height="3"></rect>
                <rect id="Rectangle-path" x="36" y="56" width="29" height="3"></rect>
                <rect id="Rectangle-path" x="95" y="56" width="7" height="3"></rect>
                <rect id="Rectangle-path" x="7" y="14" width="61" height="3"></rect>
                <rect id="Rectangle-path" x="23" y="63" width="3" height="3"></rect>
                <rect id="Rectangle-path" x="81" y="63" width="3" height="3"></rect>
                <rect id="Rectangle-path" x="7" y="0" width="24" height="3"></rect>
                <rect id="Rectangle-path" x="0" y="0" width="3" height="3"></rect>
            </g>
        </g>
    </g>
</svg>