<?xml version="1.0" encoding="UTF-8"?>
<svg width="24px" height="24px" viewBox="0 0 24 24" version="1.1" xmlns="http://www.w3.org/2000/svg" xmlns:xlink="http://www.w3.org/1999/xlink">
    <!-- Generator: Sketch 46.2 (44496) - http://www.bohemiancoding.com/sketch -->
    <title>icons/cryptoC/bitcoin</title>
    <desc>Created with Sketch.</desc>
    <defs>
        <polygon id="path-1" points="24 1.98347107e-05 24 24 3.96694215e-05 24 3.96694215e-05 1.98347107e-05"></polygon>
    </defs>
    <g id="Welcome" stroke="none" stroke-width="1" fill="none" fill-rule="evenodd" opacity="0.6">
        <g id="assets" transform="translate(-909.000000, -1454.000000)">
            <g id="icons/cryptoC/bitcoin" transform="translate(909.000000, 1454.000000)">
                <g>
                    <path d="M14.0836562,15.2926017 C13.9646479,15.5504529 13.7861355,15.7488 13.5679537,15.9074777 C13.3497719,16.0661554 13.0919207,16.1653289 12.7944,16.2049983 C12.4968793,16.2645025 12.1596893,16.2843372 11.8026645,16.2843372 L10.9894413,16.2843372 L10.9894413,12.3372298 L11.8026645,12.3372298 C12.1596893,12.3372298 12.4968793,12.3570645 12.7944,12.4165686 C13.0919207,12.4760727 13.3497719,12.5752463 13.5679537,12.7140893 C13.7861355,12.8727669 13.9448132,13.071114 14.0836562,13.3289653 C14.2026645,13.5868165 14.2621686,13.9041719 14.2621686,14.3008661 C14.2820033,14.717395 14.2026645,15.0347504 14.0836562,15.2926017 L14.0836562,15.2926017 Z M11.6043174,7.79508099 C12.3183669,7.79508099 12.8340694,7.93392397 13.1514248,8.21160992 C13.4687802,8.48929587 13.6274579,8.9256595 13.6274579,9.4810314 C13.6274579,10.056238 13.4687802,10.4727669 13.1514248,10.7504529 C12.8340694,11.0281388 12.3183669,11.1669818 11.6043174,11.1669818 L11.009276,11.1669818 L11.009276,7.75541157 L11.6043174,7.75541157 L11.6043174,7.79508099 Z M16.5034909,13.1901223 C16.3646479,12.8926017 16.1861355,12.6347504 15.948119,12.4165686 C15.7101025,12.1983868 15.4324165,12.0397091 15.1150612,11.9008661 C14.7977058,11.7620231 14.440681,11.6826843 14.0836562,11.6628496 L14.0836562,11.6033455 C14.6786975,11.4843372 15.1547306,11.226486 15.5117554,10.8297917 C15.8687802,10.4330975 16.0472926,9.93722975 16.0472926,9.34218843 C16.0472926,8.74714711 15.9084496,8.29094876 15.6505983,7.93392397 C15.3729124,7.57689917 15.0357223,7.31904793 14.6191934,7.12070083 C14.2026645,6.94218843 13.7266314,6.82318017 13.1910942,6.76367603 L13.1712595,6.76367603 L13.1712595,5.13722975 L11.901838,5.13722975 L11.901838,6.68433719 L11.6439868,6.68433719 L11.009276,6.68433719 L11.009276,5.13722975 L9.73985455,5.13722975 L9.73985455,6.68433719 L7.35968926,6.68433719 C7.30018512,6.90251901 7.30018512,7.10086612 7.35968926,7.31904793 L8.68861488,7.69590744 L8.68861488,16.4628496 L7.35968926,16.8397091 C7.30018512,17.0578909 7.30018512,17.256238 7.35968926,17.4744198 L9.73985455,17.4744198 L9.73985455,18.9421884 L11.009276,18.9421884 L11.009276,17.4744198 L11.901838,17.4744198 L11.901838,18.9421884 L13.1712595,18.9421884 L13.1712595,17.395081 C13.3497719,17.3752463 13.5084496,17.3554116 13.686962,17.3157421 C14.2621686,17.2165686 14.7778711,17.0380562 15.2142347,16.8000397 C15.6704331,16.5620231 16.0274579,16.2248331 16.2853091,15.8083041 C16.562995,15.3917752 16.6820033,14.8760727 16.6820033,14.241362 C16.701838,13.8248331 16.6224992,13.487643 16.5034909,13.1901223 L16.5034909,13.1901223 Z" id="Fill-1" fill="#000000"></path>
                    <g id="Group-5">
                        <mask id="mask-2" fill="white">
                            <use xlink:href="#path-1"></use>
                        </mask>
                        <g id="Clip-4"></g>
                        <path d="M12.0000397,21.9173752 C6.52288264,21.9173752 2.0826843,17.4771769 2.0826843,12.0000198 C2.0826843,6.52286281 6.52288264,2.08266446 12.0000397,2.08266446 C17.4771967,2.08266446 21.917395,6.52286281 21.917395,12.0000198 C21.917395,17.4771769 17.4771967,21.9173752 12.0000397,21.9173752 M12.0000397,1.98347107e-05 C5.37246942,1.98347107e-05 3.96694215e-05,5.37244959 3.96694215e-05,12.0000198 C3.96694215e-05,18.6273917 5.37246942,24.0000198 12.0000397,24.0000198 C18.6274116,24.0000198 24.0000397,18.6273917 24.0000397,12.0000198 C24.0000397,5.37244959 18.6274116,1.98347107e-05 12.0000397,1.98347107e-05" id="Fill-3" fill="#000000" mask="url(#mask-2)"></path>
                    </g>
                </g>
            </g>
        </g>
    </g>
</svg>