<?xml version="1.0" encoding="UTF-8"?>
<svg width="12px" height="24px" viewBox="0 0 12 24" version="1.1" xmlns="http://www.w3.org/2000/svg" xmlns:xlink="http://www.w3.org/1999/xlink">
    <!-- Generator: Sketch 46.2 (44496) - http://www.bohemiancoding.com/sketch -->
    <title>icons/cryptoC/etherium</title>
    <desc>Created with Sketch.</desc>
    <defs></defs>
    <g id="Welcome" stroke="none" stroke-width="1" fill="none" fill-rule="evenodd" opacity="0.6">
        <g id="assets" transform="translate(-955.000000, -1454.000000)" fill="#000000">
            <g id="icons/cryptoC/etherium" transform="translate(949.000000, 1454.000000)">
                <g id="Page-1" transform="translate(6.000000, 0.000000)">
                    <path d="M5.95300773,16.3736751 L0.817935912,12.0591116 L-5.3038674e-05,12.6976972 L5.47619006,23.9286365 L6.42982541,23.9286365 L11.9059359,12.6976972 L11.087947,12.0591116 L5.95300773,16.3736751 Z M6.48339448,17.3135204 L9.85731713,14.4786033 L6.48339448,21.3984265 L6.48339448,17.3135204 Z M2.04856575,14.4786033 L5.4224884,17.3135204 L5.4224884,21.3984265 L2.04856575,14.4786033 Z" id="Fill-1"></path>
                    <path d="M5.48687735,3.97790055e-05 L0.0105016575,10.0906475 L0.131032044,10.7456751 L5.60727514,15.4529901 L6.29876685,15.4529901 L11.7750099,10.7456751 L11.8954077,10.0906475 L6.41916464,3.97790055e-05 L5.48687735,3.97790055e-05 Z M6.48334144,8.7351116 L6.48334144,2.34222762 L10.4124464,9.58200663 L6.48334144,8.7351116 Z M5.42256796,2.34222762 L5.42256796,8.7351116 L1.49346298,9.58200663 L5.42256796,2.34222762 Z M6.48334144,9.82028287 L10.2740155,10.637211 L6.48334144,13.8955094 L6.48334144,9.82028287 Z M1.63189392,10.637211 L5.42256796,9.82028287 L5.42256796,13.8955094 L1.63189392,10.637211 Z" id="Fill-2"></path>
                </g>
            </g>
        </g>
    </g>
</svg>