<?xml version="1.0" encoding="UTF-8"?>
<svg width="24px" height="24px" viewBox="0 0 24 24" version="1.1" xmlns="http://www.w3.org/2000/svg" xmlns:xlink="http://www.w3.org/1999/xlink">
    <!-- Generator: Sketch 46.2 (44496) - http://www.bohemiancoding.com/sketch -->
    <title>icons/cryptoC/lightcoin</title>
    <desc>Created with Sketch.</desc>
    <defs></defs>
    <g id="Welcome" stroke="none" stroke-width="1" fill="none" fill-rule="evenodd" opacity="0.6">
        <g id="assets" transform="translate(-988.000000, -1454.000000)" fill="#000000">
            <g id="icons/cryptoC/lightcoin" transform="translate(988.000000, 1454.000000)">
                <g id="Page-1">
                    <polygon id="Fill-1" points="11.7025587 15.233038 12.3372694 12.833038 14.8166083 11.9801455 14.2612364 10.3140298 12.8529719 10.8098975 14.2215669 5.53386446 10.3736331 5.53386446 8.54883967 12.2975008 6.62487273 12.9520463 7.18024463 14.618162 7.99346777 14.340476 7.04140165 17.8313851 17.0976 17.8313851 17.5339636 15.233038"></polygon>
                    <path d="M12.0000793,21.9173752 C6.52292231,21.9173752 2.08272397,17.4771769 2.08272397,12.0000198 C2.08272397,6.52286281 6.52292231,2.08266446 12.0000793,2.08266446 C17.4772364,2.08266446 21.9174347,6.52286281 21.9174347,12.0000198 C21.9174347,17.4771769 17.4772364,21.9173752 12.0000793,21.9173752 M12.0000793,1.98347107e-05 C5.37250909,1.98347107e-05 7.9338843e-05,5.37244959 7.9338843e-05,12.0000198 C7.9338843e-05,18.6273917 5.37250909,24.0000198 12.0000793,24.0000198 C18.6274512,24.0000198 24.0000793,18.6273917 24.0000793,12.0000198 C24.0000793,5.37244959 18.6274512,1.98347107e-05 12.0000793,1.98347107e-05" id="Fill-2"></path>
                </g>
            </g>
        </g>
    </g>
</svg>