<svg width="24" height="24" xmlns="http://www.w3.org/2000/svg" xmlns:xlink="http://www.w3.org/1999/xlink"><defs><path id="a" d="M24 0v24H0V0z"/></defs><g fill="none" fill-rule="evenodd" opacity=".6"><path d="M14.084 15.293a1.563 1.563 0 0 1-.516.614 1.666 1.666 0 0 1-.774.298c-.297.06-.634.08-.991.08h-.814v-3.948h.814c.357 0 .694.02.991.08.298.06.556.158.774.297.218.159.377.357.516.615.119.258.178.575.178.972.02.416-.06.734-.178.992zm-2.48-7.498c.714 0 1.23.139 1.547.417.318.277.476.714.476 1.269 0 .575-.158.992-.476 1.27-.317.277-.833.416-1.547.416h-.595V7.755h.595v.04zm4.9 5.395a2.407 2.407 0 0 0-.556-.773 2.949 2.949 0 0 0-.833-.516 3.014 3.014 0 0 0-1.031-.238v-.06c.595-.119 1.07-.377 1.428-.773.357-.397.535-.893.535-1.488s-.139-1.051-.396-1.408a2.77 2.77 0 0 0-1.032-.813 5.022 5.022 0 0 0-1.428-.357h-.02V5.137h-1.27v1.547h-.892V5.137H9.74v1.547H7.36a1.15 1.15 0 0 0 0 .635l1.33.377v8.767l-1.33.377a1.15 1.15 0 0 0 0 .634h2.38v1.468h1.27v-1.468h.893v1.468h1.27v-1.547c.178-.02.336-.04.515-.08a4.923 4.923 0 0 0 1.527-.515 2.722 2.722 0 0 0 1.071-.992c.278-.416.397-.932.397-1.567.02-.416-.06-.753-.179-1.05z" fill="#000"/><mask id="b" fill="#fff"><use xlink:href="#a"/></mask><path d="M12 21.917c-5.477 0-9.917-4.44-9.917-9.917 0-5.477 4.44-9.917 9.917-9.917 5.477 0 9.917 4.44 9.917 9.917 0 5.477-4.44 9.917-9.917 9.917M12 0C5.372 0 0 5.372 0 12c0 6.627 5.372 12 12 12 6.627 0 12-5.373 12-12 0-6.628-5.373-12-12-12" fill="#000" mask="url(#b)"/></g></svg>