<svg width="12" height="24" xmlns="http://www.w3.org/2000/svg"><g fill-rule="evenodd" opacity=".6"><path d="M5.953 16.374L.818 12.059 0 12.698l5.476 11.23h.954l5.476-11.23-.818-.639-5.135 4.315zm.53.94l3.374-2.835-3.374 6.92v-4.085zM2.05 14.479l3.373 2.835v4.084l-3.373-6.92z"/><path d="M5.487 0L.01 10.09l.12.656 5.476 4.707H6.3l5.476-4.707.12-.655L6.42 0h-.932zm.996 8.735V2.342l3.93 7.24-3.93-.847zm-1.06-6.393v6.393l-3.93.847 3.93-7.24zm1.06 7.478l3.791.817-3.79 3.259V9.82zm-4.851.817l3.79-.817v4.076l-3.79-3.259z"/></g></svg>