<svg width="131" height="60" xmlns="http://www.w3.org/2000/svg" xmlns:xlink="http://www.w3.org/1999/xlink"><defs><path id="a" d="M6.277.447L.173 6.714l3.426-.04L9.932.447z"/><path id="c" d="M.335 3.07L.31 6.62l4.446-4.246-2.042-1.9z"/><path id="e" d="M.22.008L1.707 3.42 3.49 1.923l4.127 2.009L3.409.008z"/><path id="g" d="M.054 1.694l3.665 6.864L1.745.296z"/><path id="i" d="M3.113 3.565L6.33.248.355.21z"/><path id="k" d="M2.07 1.815L3.465.361.327.343z"/><path id="m" d="M.44 4.486l.002 3.966 3.355-3.734L3.79.713z"/></defs><g fill="none" fill-rule="evenodd"><path fill="#92278F" d="M39 0v4.35h17.549V21H61V0zM0 41v19h19v-4.308H4.333V41z"/><path fill="#1A1A1A" d="M72.19 43.26h4.464v3.162H72.19V54H68V35h10v3.333h-5.81zm12.96 3.847l-1.076-5.178c-.175-.785-.32-1.513-.408-3.258-.116.814-.232 1.89-.466 3.084l-1.047 5.352h2.998zm.845-12.072l4.395 19.401h-4.017l-.786-4.19h-3.842l-.757 4.19h-3.58l4.453-19.4h4.134zm10.288 8.581h1.107c1.543 0 2.153-1.018 2.153-2.85 0-2.008-.873-2.677-2.153-2.677h-1.107v5.527zm-3.9-8.58h5.007c2.095 0 3.289.116 4.307 1.047 1.805 1.687 1.805 3.984 1.805 4.712 0 3.664-1.63 4.683-2.532 5.235l2.94 8.406h-4.191l-2.184-7.62h-1.252v7.62h-3.9v-19.4zm13.84-.001h5.473l1.484 8.174c.349 1.803.494 3.81.61 5.555.146-2.123.582-4.915.816-5.963l1.659-7.766h5.356v19.401h-3.813V43.384c0-1.251.029-2.066.203-5.877-.174 1.251-.64 4.683-.844 5.702l-2.357 11.227h-2.504l-2.27-11.402c-.262-1.338-.553-3.694-.757-5.527.03 1.513.117 3.899.117 5.41v11.52h-3.173V35.034z"/><path d="M72.015 23.895h1.572c1.456 0 2.387-.466 2.387-2.618 0-.175 0-1.105-.407-1.832-.437-.728-.99-.786-2.125-.786h-1.427v5.236zm0-8.348h1.456c2.096 0 2.154-1.425 2.154-2.24 0-1.425-.611-2.472-2.154-2.472h-1.456v4.712zm-3.841-7.824h5.297c2.357 0 3.667 0 4.803 1.338.64.728 1.222 1.803 1.222 3.694 0 3.2-1.513 3.869-2.416 4.246.728.263 2.97 1.018 2.97 4.887 0 2.152-.903 3.403-1.514 4.014-1.136 1.192-3.23 1.221-4.366 1.221h-5.996v-19.4zm18.232 0v12.361c0 2.414.204 3.782 1.98 3.782 1.891 0 1.92-1.716 1.92-3.985V7.723h3.377v12.158c0 3.433-.203 7.533-5.56 7.533-4.424 0-5.705-2.24-5.705-7.213V7.723h3.988zm10.56 0h3.988v15.823h4.919v3.578h-8.907zm11.036 0h3.988v15.823h4.918v3.578h-8.906zm15.006 4.392c-.348.96-.407 3.054-.407 5.498 0 1.657 0 3.548.35 4.914.203.786.552 1.426 1.542 1.426 1.077 0 1.397-.698 1.571-1.716.234-1.338.234-4.742.234-5.003 0-1.192 0-3.926-.38-5.09-.319-.96-.755-1.25-1.512-1.25-.612 0-1.077.348-1.398 1.221m7.51 5.44c0 5.729-1.31 9.859-6.112 9.859-3.027 0-4.163-1.832-4.396-2.21-1.251-2.037-1.63-4.887-1.63-7.999 0-5.934 1.543-9.773 6.113-9.773 4.686 0 6.025 4.247 6.025 10.122M8.113 34.39h3.596l1.53-1.516h-3.42zm5.145-1.516h6.29l3.703-3.224h-6.913z" fill="#92278F"/><path fill="#92278F" d="M18.59 32.745l.029 7.675-3.66 3.657.005 3.845 9.286-9.178 3.491-.038L41.311 26.5l4.131 2.193 2.332-2.479-1.858-8.13H33.22z"/><path fill="#92278F" d="M44.45 19.565l2.931-2.684-.038-5.093-1.846 4.231-4.564 2.291zm-6.744 16.868l-3.512-3.549-6.3-.371.417-8.468 8.436-2.853 3.695 9.248v7.367L35.25 42.82l.028-3.688z"/><path fill="#000" d="M24.188 38.732l6.22-5.86h3.724l-6.453 5.823z"/><g transform="translate(24 33)"><mask id="b" fill="#fff"><use xlink:href="#a"/></mask><path fill="#000" mask="url(#b)" d="M-4 11.257h18.105V-4.097H-4z"/></g><path fill="#000" d="M35.028 39.535L37.705 37 40 38.856 35 43z"/><g transform="translate(35 36)"><mask id="d" fill="#fff"><use xlink:href="#c"/></mask><path fill="#000" mask="url(#d)" d="M-3.863 10.709H8.93V-3.616H-3.863z"/></g><path fill="#000" d="M38 25h3.018L45 29l-3.905-2.049-1.687 1.526z"/><g transform="translate(38 25)"><mask id="f" fill="#fff"><use xlink:href="#e"/></mask><path fill="#000" mask="url(#f)" d="M-4.03 7.827h15.896V-3.887H-4.03z"/></g><path fill="#000" d="M45.384 18L44 19.354 47 26z"/><g transform="translate(44 18)"><mask id="h" fill="#fff"><use xlink:href="#g"/></mask><path fill="#000" mask="url(#h)" d="M-4.62 12.94H8.393V-4.085H-4.62z"/></g><path fill="#000" d="M22 30.034L18.77 33 16 30z"/><g transform="translate(16 30)"><mask id="j" fill="#fff"><use xlink:href="#i"/></mask><path fill="#000" mask="url(#j)" d="M-4.188 8.24h15.062V-4.464H-4.188z"/></g><path fill="#000" d="M13 33.024L11.666 35 10 33z"/><g transform="translate(9 33)"><mask id="l" fill="#fff"><use xlink:href="#k"/></mask><path fill="#000" mask="url(#l)" d="M-3.568 5.71H7.359v-9.261H-3.568z"/></g><path fill="#000" d="M18.991 40L19 43.623 15.004 47 15 43.412z"/><g transform="translate(15 40)"><mask id="n" fill="#fff"><use xlink:href="#m"/></mask><path fill="#000" mask="url(#n)" d="M-3.456 12.833H7.692V-3.669H-3.456z"/></g></g></svg>