<svg width="127" height="59" xmlns="http://www.w3.org/2000/svg" xmlns:xlink="http://www.w3.org/1999/xlink"><defs><path d="M.047.611V20.52h6.895c1.24 0 2.297-.093 3.133-.409.836-.313 1.534-.67 2.056-1.196.52-.527.929-1.141 1.146-1.843.216-.703.403-1.443.403-2.22 0-1.33-.186-2.393-.874-3.187-.69-.795-1.845-1.266-2.488-1.414v-.055c.643-.277 1.543-.807 2.075-1.575.53-.767.48-1.693.48-2.766 0-.942-.147-1.752-.442-2.4-.296-.646-.709-1.193-1.24-1.581A5.136 5.136 0 0 0 9.289.98C8.551.814 7.75.61 6.884.61H.047zm4.495 3.017h1.013c1.064 0 1.84.286 2.331.673.493.389.739 1.145.739 2.088 0 .942-.27 1.634-.812 2.031-.541.397-1.401.637-2.581.637h-.69v-5.43zm0 7.842h1.31c.47 0 .904.179 1.297.27.394.093.732.386 1.02.618.283.23.51.524.677.902.167.379.251.829.251 1.402 0 1.146-.315 1.88-.944 2.304-.63.426-1.455.536-2.479.536H4.542V11.47z" id="a"/><path d="M10.583.612v14.045c0 .5-.337.957-.406 1.373-.07.416-.5.777-.687 1.08a2.01 2.01 0 0 1-.749.722c-.316.177-.718.264-1.23.264-.496 0-.878-.087-1.204-.264-.325-.175-.53-.416-.717-.721-.188-.304-.208-.665-.277-1.08-.07-.417.11-.874.11-1.374V.612H.912v14.045c0 1.332.096 2.413.473 3.245.374.831.787 1.474 1.42 1.927a5.289 5.289 0 0 0 2.167.9c.81.15 1.656.223 2.525.223.87 0 1.722-.083 2.533-.25a5.4 5.4 0 0 0 2.19-.97 5.122 5.122 0 0 0 1.564-1.955 7.455 7.455 0 0 0 .668-3.12V.612h-3.868z" id="c"/><path d="M4.176 1.68a5.363 5.363 0 0 0-2.178 2.17c-.504.928-.83 2.038-.979 3.334a37.543 37.543 0 0 0-.22 4.241c0 1.55.073 2.97.22 4.256.15 1.286.475 2.393.979 3.32a5.101 5.101 0 0 0 2.178 2.13c.948.492 2.222.744 3.823.744 1.402 0 2.543-.196 3.423-.61.88-.416 1.56-.968 2.045-1.706a6.644 6.644 0 0 0 .993-2.53c.177-.982.267-2.4.267-3.016h-4.268c0 .617-.07 1.877-.208 2.548-.138.672-.326 1.088-.563 1.458-.237.368-.518.615-.845.737a2.936 2.936 0 0 1-1.051.183 2.57 2.57 0 0 1-1.2-.269c-.347-.178-.633-.53-.86-1.05-.228-.52-.396-1.254-.504-2.199-.11-.945-.163-2.186-.163-3.718 0-1.436.04-2.658.119-3.65.079-.992.216-1.805.413-2.42.198-.615.47-1.077.816-1.352a2.088 2.088 0 0 1 1.32-.446c.967 0 1.634.263 2 .933.365.672.547 1.84.547 3.073h4.269c0-.617-.056-1.38-.163-2.222-.11-.841-.38-1.48-.816-2.208-.435-.728-1.092-1.33-1.97-1.801C10.72 1.137 9.52.9 7.998.9c-1.6 0-2.875.261-3.823.78z" id="e"/><path d="M2.427 2.376C1.26 3.36.679 4.854.679 6.856c0 .834.108 1.566.325 2.2a4.494 4.494 0 0 0 1.023 1.673c.464.482 1.042.903 1.734 1.262.691.36 1.511.69 2.46.993.71.228 1.308.45 1.792.666.485.219.874.46 1.172.724.295.266.508.563.637.893.129.332.192.724.192 1.178 0 .85-.26 1.48-.784 1.886a2.805 2.805 0 0 1-1.764.61c-.554 0-1.011-.077-1.377-.227a2.2 2.2 0 0 1-.874-.624 2.205 2.205 0 0 1-.44-.98 6.407 6.407 0 0 1-.114-1.29v-.572H.792v.8c0 1.872.313 3.309 1.35 4.31C3.18 21.362 4.7 21.862 7.11 21.862c2.31 0 4.114-.487 5.408-1.46 1.294-.974 1.941-2.53 1.941-4.667 0-.624-.06-1.19-.177-1.702a3.889 3.889 0 0 0-.637-1.404c-.306-.425-.716-.823-1.23-1.191-.515-.37-1.176-.724-1.986-1.064L7.14 9.012c-.908-.36-1.501-.753-1.778-1.179-.277-.425-.415-.952-.415-1.576 0-.302.035-.6.104-.884.069-.284.198-.544.385-.762.187-.217.44-.412.757-.544a3.057 3.057 0 0 1 1.185-.236c.83 0 1.422.183 1.777.704.356.519.533 1.455.533 2.072h4.646v-.26c0-.965-.441-1.792-.767-2.482-.327-.69-1.057-1.258-1.64-1.702-.584-.444-1.275-.766-2.075-.964A10.884 10.884 0 0 0 7.228.9c-2.035 0-3.636.49-4.801 1.475z" id="g"/></defs><g fill="none" fill-rule="evenodd"><g transform="translate(69 10)"><mask id="b" fill="#fff"><use xlink:href="#a"/></mask><path fill="#ED0303" mask="url(#b)" d="M-4.7 24.973h23.127V-3.842H-4.7z"/></g><g transform="translate(84 10)"><mask id="d" fill="#fff"><use xlink:href="#c"/></mask><path fill="#ED0303" mask="url(#d)" d="M-3.857 25.406h23.076V-3.842H-3.857z"/></g><path fill="#ED0303" d="M101 11v20h12v-3.03h-7.58V11zm13 0v20h11v-3.03h-7.334V11z"/><g transform="translate(67 37)"><mask id="f" fill="#fff"><use xlink:href="#e"/></mask><path fill="#1A1A1A" mask="url(#f)" d="M-3.97 26.432h23.464V-3.657H-3.971z"/></g><path d="M87.439 38L82 58h4.316l.95-4.242h5.467l.95 4.242H98l-5.44-20h-5.12zm2.532 3.637h.058l1.985 9.09h-4.03l1.987-9.09z" fill="#1A1A1A"/><g transform="translate(98 37)"><mask id="h" fill="#fff"><use xlink:href="#g"/></mask><path fill="#1A1A1A" mask="url(#h)" d="M-4.089 26.42h23.317V-3.657H-4.09z"/></g><path fill="#1A1A1A" d="M122.667 38v7.879h-4.334V38H114v20h4.333v-8.484h4.334V58H127V38z"/><path fill="#ED0303" d="M.002 0L0 58h2.998L3 0z"/><path fill="#ED0303" d="M0 57.997L58 58v-2.997L0 55z"/><path fill="#1A1A1A" d="M7 33h4.587L14 30H9.4zm7-3h6.63L23 27h-6.603z"/><path fill="#ED0303" d="M19.464 30.01l.005 9.002L15 43.502 15.004 48 26.34 36.578l7.192-2.71 12.741-8.376 4.465.008L53 23.22 50.738 12l-13.457.062z"/><path fill="#1A1A1A" d="M49.297 14L54 9.498V5l-1.2 3.389-5.8 3.356zM19 41v4.625L16 48l.064-4.594zm17.512-15.41L46 25 32.321 36H26z"/><path fill="#1A1A1A" d="M53 25.398L48.4 21H37l6.191 7 5.064-2.594z"/><path fill="#ED0303" d="M42.512 34.172l-4.696-4.591L30 29.519l.516-10.112L40.97 16l3.994 11.139L46 35.416l-4.215 4.051-.55.533.003-4.604z"/><path fill="#1A1A1A" d="M42 34v4.586L39 41l.131-4.6z"/></g></svg>