<svg width="33" height="25" xmlns="http://www.w3.org/2000/svg"><g fill="#788089"><path d="M28.971 0H4.035C1.81 0 0 1.801 0 4.017v16.966C0 23.199 1.81 25 4.035 25h24.93C31.19 25 33 23.199 33 20.983V4.023C33.007 1.809 31.197 0 28.971 0zm2.192 20.983a2.19 2.19 0 0 1-2.192 2.182H4.035a2.19 2.19 0 0 1-2.191-2.182V4.023a2.19 2.19 0 0 1 2.191-2.181h24.93a2.19 2.19 0 0 1 2.191 2.182v16.959h.007z"/><path d="M20.74 12.785l7.945-7.183a.924.924 0 0 0 .067-1.294.907.907 0 0 0-1.284-.068l-10.956 9.914-2.137-1.925c-.007-.007-.014-.013-.014-.02a1.347 1.347 0 0 0-.148-.129L5.516 4.234a.901.901 0 0 0-1.284.074.919.919 0 0 0 .074 1.294l8.039 7.244L4.339 20.4a.924.924 0 0 0-.04 1.294.905.905 0 0 0 1.284.047l8.126-7.663 2.205 1.985a.903.903 0 0 0 1.21-.006l2.265-2.047 8.079 7.738a.903.903 0 0 0 1.284-.034.924.924 0 0 0-.034-1.294l-7.978-7.636z"/></g></svg>