<svg width="126" height="74" xmlns="http://www.w3.org/2000/svg"><g fill="none" fill-rule="evenodd"><path d="M66.562 29.872h1.39c.653 0 1.164-.094 1.532-.284a1.95 1.95 0 0 0 .837-.789c.19-.336.306-.736.348-1.199.042-.463.063-.968.063-1.515 0-.568-.032-1.062-.095-1.483-.063-.421-.195-.774-.394-1.058-.2-.284-.48-.5-.838-.647-.358-.147-.832-.22-1.421-.22h-1.422v7.195zm0-10.036h1.454c1.074 0 1.795-.269 2.163-.805.369-.537.553-1.32.553-2.351 0-1.01-.205-1.768-.616-2.273-.41-.505-1.153-.758-2.227-.758h-1.327v6.187zm-3.221-9.217h4.706c1.032 0 1.911.158 2.638.474.726.315 1.321.737 1.784 1.262.464.527.795 1.132.996 1.815.2.684.3 1.394.3 2.13v.821c0 .61-.048 1.126-.143 1.547a3.713 3.713 0 0 1-.426 1.105c-.19.315-.422.594-.695.836-.274.242-.59.468-.948.679.758.357 1.316.889 1.675 1.593.357.706.537 1.647.537 2.825v1.263c0 1.978-.48 3.493-1.438 4.545s-2.49 1.578-4.596 1.578h-4.39V10.619zm23.893 17.423c0 .737-.138 1.42-.411 2.051a5.296 5.296 0 0 1-1.121 1.657 5.3 5.3 0 0 1-1.659 1.12 5.041 5.041 0 0 1-2.021.411 5.04 5.04 0 0 1-2.022-.41 5.288 5.288 0 0 1-2.78-2.777 5.093 5.093 0 0 1-.41-2.052V10.619h3.222v17.107c0 .8.19 1.389.568 1.768.38.378.853.568 1.422.568.568 0 1.042-.19 1.421-.568.38-.379.569-.968.569-1.768V10.62h3.222v17.423zm3.139-17.422h3.222v19.252h6.381v3.22h-9.603zm12.222 0h3.222v19.252h6.38v3.22h-9.602zm15.272 17.17c0 .778.216 1.351.648 1.72.431.368.942.552 1.532.552.59 0 1.1-.184 1.532-.552.431-.369.648-.942.648-1.72V15.921c0-.778-.217-1.352-.648-1.72a2.289 2.289 0 0 0-1.532-.552c-.59 0-1.1.184-1.532.552-.432.368-.648.942-.648 1.72v11.867zm-3.222-11.868c0-.905.158-1.704.474-2.399.316-.694.732-1.267 1.248-1.72a5.384 5.384 0 0 1 1.737-1.026 5.7 5.7 0 0 1 1.943-.347c.652 0 1.3.116 1.943.347a5.396 5.396 0 0 1 1.737 1.026c.516.453.932 1.026 1.248 1.72.316.695.473 1.494.473 2.399v11.867c0 .927-.157 1.731-.473 2.415a5.044 5.044 0 0 1-1.248 1.704 5.382 5.382 0 0 1-1.737 1.026 5.7 5.7 0 0 1-1.943.347c-.653 0-1.3-.116-1.943-.347a5.37 5.37 0 0 1-1.737-1.026 5.037 5.037 0 0 1-1.248-1.704c-.316-.684-.474-1.488-.474-2.415V15.922z" fill="#000"/><path d="M74.056 46.66h-3.222v-.726c0-.737-.174-1.373-.522-1.91-.347-.537-.931-.805-1.753-.805-.442 0-.805.085-1.09.253a1.869 1.869 0 0 0-.663.647 2.704 2.704 0 0 0-.331.915 6.07 6.07 0 0 0-.095 1.089c0 .442.016.816.047 1.12.032.306.11.568.237.79.127.22.31.415.553.583.242.17.573.337.995.505l2.464.979c.715.273 1.295.595 1.737.963.442.368.784.8 1.027 1.294a5.49 5.49 0 0 1 .49 1.704c.083.642.126 1.373.126 2.193 0 .947-.095 1.826-.285 2.636-.19.81-.5 1.505-.931 2.083-.432.58-1.006 1.037-1.722 1.373-.716.336-1.59.505-2.622.505a5.75 5.75 0 0 1-2.18-.41 5.302 5.302 0 0 1-1.737-1.12A5.277 5.277 0 0 1 63 57.516v-1.2h3.222v1.01c0 .59.174 1.121.521 1.595.348.473.932.71 1.753.71.548 0 .974-.08 1.28-.237a1.63 1.63 0 0 0 .694-.663c.159-.284.258-.636.3-1.057.043-.42.064-.884.064-1.389 0-.589-.021-1.073-.063-1.452-.043-.379-.132-.683-.269-.915a1.638 1.638 0 0 0-.569-.568 7.626 7.626 0 0 0-.963-.474l-2.306-.947c-1.39-.568-2.322-1.32-2.795-2.256-.474-.936-.711-2.11-.711-3.52 0-.84.115-1.64.347-2.398.232-.758.574-1.41 1.027-1.957a4.901 4.901 0 0 1 1.722-1.31c.694-.326 1.505-.489 2.432-.489.8 0 1.532.147 2.195.442a5.461 5.461 0 0 1 1.706 1.168 5.193 5.193 0 0 1 1.09 1.625c.252.6.379 1.215.379 1.846v1.579zm8.324-.19h-.062l-1.58 8.143h3.222l-1.58-8.143zM81.023 40h2.685l5.023 22.472h-3.222l-.948-4.829h-4.39l-.948 4.83H76L81.022 40zM91 40h9.603v3.03h-6.381v6.818h5.56v3.03h-5.56v9.594H91zm13 0h9.603v3.03h-6.381v6.596h5.56v3.03h-5.56v6.597h6.38v3.22H104zM8.031.223l36.458.02-2.656 2.616-32.483.012-6.226 6.08-.002 14.358-2.58 2.63.03-18.192zm5.381 60.073l3.724.032 9.131 9.438L48.34 47.564l3.68-.031-25.678 25.69zM3.123 37.361H7.35l1.798-1.785H5.13zm6.05-1.785h7.396l4.355-3.793h-8.128z" fill="#77BC1F"/><path fill="#77BC1F" d="M15.443 35.426l.033 9.031-4.302 4.304.004 4.526 10.921-10.803 4.105-.043 15.957-14.366 4.858 2.58 2.742-2.917-2.185-9.567h-14.93z"/><path fill="#77BC1F" d="M45.853 19.914l3.446-3.158-.044-5.993-2.171 4.98-5.367 2.696zm-7.932 19.852l-4.129-4.177-7.408-.437.49-9.966 9.92-3.356 4.346 10.883v8.67l-6.106 5.897.033-4.34z"/><path fill="#609E11" d="M22.026 42.47l7.314-6.894h4.38l-7.589 6.852zm13.031.646l2.852-3.174 2.446 2.324-5.327 5.19zm3.281-17.437h3.754l4.952 5.039-4.857-2.58-2.098 1.922zm9.311-7.374l-1.81 1.596 3.922 7.832zM19.37 31.926l-3.54 3.548-3.034-3.59zm-10.22 3.62l-1.791 1.868-2.238-1.89zm6.409 8.909l.008 4.572-4.307 4.26-.004-4.527z"/></g></svg>