<svg width="57" height="56" xmlns="http://www.w3.org/2000/svg" xmlns:xlink="http://www.w3.org/1999/xlink"><defs><path id="a" d="M5.75.447L.158 6.714l3.14-.04 5.8-6.227z"/><path id="c" d="M.341 3.07L.316 6.62 4.84 2.373 2.763.474z"/><path id="e" d="M.196.008L1.52 3.42l1.588-1.497 3.676 2.009L3.036.008z"/><path id="g" d="M.055 1.506l3.73 6.101L1.777.263z"/><path id="i" d="M3.169 3.565L6.443.248.362.21z"/><path id="k" d="M2.107 1.815L3.527.361.332.343z"/><path id="m" d="M.447 3.987L.45 7.513l3.415-3.319-.007-3.56z"/></defs><g fill="none" fill-rule="evenodd"><path fill="#92278F" d="M35.625 0v4.142h17.05V20H57V0zM0 38v18h18.321v-4.081H4.178V38zm8.143-6h3.57l1.52-1H9.837zm4.071-1h5.766l3.395-3h-6.337z"/><path fill="#92278F" d="M17.74 30.758l.028 7.202-3.518 3.432.003 3.608 8.93-8.613 3.357-.035 13.05-11.455 3.972 2.058 2.243-2.326L44.017 17H31.809z"/><path fill="#92278F" d="M42.01 18l2.776-2.416L44.75 11 43 14.809l-4.32 2.061zm-5.995 16.095l-3.418-3.282-6.133-.344.406-7.83L35.08 20l3.598 8.552v6.813L33.625 40l.026-3.41z"/><path fill="#000" d="M23.41 36l5.73-5h3.431l-5.944 4.968z"/><g transform="translate(22.393 31)"><mask id="b" fill="#fff"><use xlink:href="#a"/></mask><path fill="#000" mask="url(#b)" d="M-3.664 11.257H12.92V-4.097H-3.664z"/></g><path fill="#000" d="M33.618 37.535L36.342 35l2.337 1.856L33.589 41z"/><g transform="translate(33.59 34)"><mask id="d" fill="#fff"><use xlink:href="#c"/></mask><path fill="#000" mask="url(#d)" d="M-3.932 10.709h13.02V-3.616h-13.02z"/></g><path fill="#000" d="M36.643 23h3.072l4.053 4-3.975-2.049-1.717 1.526z"/><g transform="translate(36.643 23)"><mask id="f" fill="#fff"><use xlink:href="#e"/></mask><path fill="#000" mask="url(#f)" d="M-3.59 7.827h14.158V-3.887H-3.589z"/></g><path fill="#000" d="M43.141 17l-1.409 1.184L44.786 24z"/><g transform="translate(41.732 17)"><mask id="h" fill="#fff"><use xlink:href="#g"/></mask><path fill="#000" mask="url(#h)" d="M-4.702 11.502H8.543V-3.631H-4.702z"/></g><path fill="#000" d="M21.375 28.034L18.087 31l-2.82-3z"/><g transform="translate(15.268 28)"><mask id="j" fill="#fff"><use xlink:href="#i"/></mask><path fill="#000" mask="url(#j)" d="M-4.263 8.24h15.331V-4.464H-4.263z"/></g><path fill="#000" d="M12.214 31.024L10.856 33l-1.695-2z"/><g transform="translate(8.143 31)"><mask id="l" fill="#fff"><use xlink:href="#k"/></mask><path fill="#000" mask="url(#l)" d="M-3.632 5.71H7.491v-9.261H-3.632z"/></g><path fill="#000" d="M18.313 37l.008 3.623L14.254 44l-.004-3.588z"/><g transform="translate(14.25 37)"><mask id="n" fill="#fff"><use xlink:href="#m"/></mask><path fill="#000" mask="url(#n)" d="M-3.518 11.407H7.83V-3.26H-3.518z"/></g></g></svg>