<svg width="31" height="31" xmlns="http://www.w3.org/2000/svg"><path d="M24.62 19.188c-.64-.662-1.41-1.016-2.225-1.016-.81 0-1.586.348-2.25 1.01l-2.08 2.063c-.171-.092-.342-.177-.507-.262a8.729 8.729 0 0 1-.651-.347c-1.948-1.232-3.719-2.837-5.416-4.914-.823-1.035-1.376-1.906-1.777-2.79.54-.492 1.04-1.003 1.527-1.494.184-.184.368-.374.552-.557 1.382-1.376 1.382-3.158 0-4.534L9.997 4.56a27.352 27.352 0 0 1-.612-.623 31.68 31.68 0 0 0-1.237-1.218c-.639-.63-1.402-.963-2.205-.963-.803 0-1.58.334-2.237.963l-.013.013-2.238 2.247A4.784 4.784 0 0 0 .027 8.024C-.13 9.937.435 11.72.87 12.885c1.066 2.863 2.659 5.517 5.035 8.36 2.882 3.426 6.35 6.132 10.312 8.039 1.513.714 3.533 1.559 5.79 1.703.139.006.284.013.415.013 1.52 0 2.797-.544 3.797-1.625.007-.013.02-.02.026-.032.343-.413.738-.787 1.152-1.186.283-.269.573-.55.856-.845.651-.675.993-1.461.993-2.267 0-.813-.348-1.592-1.013-2.247l-3.613-3.61zm2.355 6.898c-.007 0-.007.007 0 0-.257.276-.52.525-.803.8-.428.406-.862.832-1.27 1.31-.665.708-1.448 1.042-2.474 1.042-.099 0-.204 0-.303-.007-1.954-.124-3.77-.884-5.133-1.533-3.725-1.795-6.995-4.343-9.713-7.573-2.244-2.693-3.744-5.182-4.738-7.855-.612-1.632-.836-2.903-.737-4.101a3.002 3.002 0 0 1 .908-1.946l2.244-2.234c.322-.302.665-.465 1-.465.415 0 .75.249.961.458l.02.02c.401.373.783.76 1.184 1.173.204.21.415.419.625.635l1.797 1.789c.698.694.698 1.336 0 2.03-.19.19-.375.38-.566.564a34.278 34.278 0 0 1-1.652 1.598c-.013.014-.026.02-.033.033-.566.564-.46 1.114-.342 1.487l.02.06c.467 1.126 1.125 2.187 2.126 3.452l.006.006c1.816 2.228 3.731 3.964 5.844 5.294.27.17.546.308.81.439.236.118.46.23.65.347.027.013.053.033.08.046.223.111.434.164.651.164.546 0 .888-.341 1-.452l2.251-2.24c.224-.224.58-.492.994-.492.408 0 .743.255.947.478l.013.013 3.626 3.61c.678.668.678 1.356.007 2.05zM16.52 7.02a8.31 8.31 0 0 1 4.523 2.346 8.355 8.355 0 0 1 2.346 4.523.88.88 0 0 0 .872.734c.052 0 .098-.007.15-.013a.886.886 0 0 0 .728-1.023 10.11 10.11 0 0 0-2.838-5.473 10.108 10.108 0 0 0-5.472-2.838.89.89 0 0 0-1.023.721.875.875 0 0 0 .715 1.022zm14.467 6.587a16.522 16.522 0 0 0-4.64-8.952 16.512 16.512 0 0 0-8.95-4.642.875.875 0 0 0-1.008.717.883.883 0 0 0 .723 1.015c3.032.514 5.798 1.953 7.998 4.147a14.75 14.75 0 0 1 4.145 8.001c.072.43.443.73.866.73.052 0 .098-.007.15-.013a.863.863 0 0 0 .716-1.003z" fill="#788089"/></svg>