<svg width="46" height="58" xmlns="http://www.w3.org/2000/svg"><g fill="#92278F"><path d="M33.566 51h-21.13C5.579 51 0 45.469 0 38.668V23.7C0 21.66 1.673 20 3.73 20h38.541C44.327 20 46 21.66 46 23.7v14.968C46 45.468 40.423 51 33.566 51zM3.73 21.754c-1.08 0-1.96.873-1.96 1.944v14.969c0 5.831 4.784 10.575 10.666 10.575h21.13c5.88 0 10.664-4.744 10.664-10.575v-14.97a1.953 1.953 0 0 0-1.959-1.943H3.731z"/><path d="M13.13 22a.881.881 0 0 1-.871-.89V4.452c0-1.473-1.173-2.671-2.614-2.671h-.288c-1.441 0-2.614 1.198-2.614 2.671V21.11c0 .491-.39.89-.872.89A.881.881 0 0 1 5 21.11V4.452C5 1.996 6.954 0 9.357 0h.286C12.046 0 14 1.996 14 4.452V21.11a.879.879 0 0 1-.87.89zm26.999 0a.881.881 0 0 1-.872-.89V4.452c0-1.473-1.173-2.671-2.614-2.671h-.286c-1.441 0-2.614 1.198-2.614 2.671V21.11c0 .491-.39.89-.872.89a.881.881 0 0 1-.871-.89V4.452C32 1.996 33.954 0 36.357 0h.286C39.046 0 41 1.996 41 4.452V21.11c0 .491-.39.89-.871.89zM30.118 58H16.882c-.487 0-.882-.413-.882-.92v-6.16c0-.507.395-.92.882-.92h13.236c.487 0 .882.413.882.92v6.16c0 .507-.395.92-.882.92zm-12.354-1.842h11.472v-4.316H17.764v4.316zM20.54 42l2.053-6.033L20 35.176 24.86 29l-1.453 5.395 2.593.792z"/><path d="M20.443 42a.888.888 0 0 1-.443-.116.842.842 0 0 1-.384-1.03l1.813-4.843-1.79-.498a.869.869 0 0 1-.6-.57.838.838 0 0 1 .168-.801l5.057-5.84a.901.901 0 0 1 1.086-.203c.366.19.547.603.43.991l-1.268 4.278 1.849.514a.864.864 0 0 1 .6.574.832.832 0 0 1-.173.803l-5.68 6.442a.888.888 0 0 1-.665.299zm2.643-7.257a.845.845 0 0 1 .317.99l-.482 1.289 1.643-1.864-1.378-.383a.489.489 0 0 1-.1-.032zm-1.66-.51l1.391.387a.69.69 0 0 1 .1.034.867.867 0 0 1-.26-.283.834.834 0 0 1-.075-.651l.369-1.244-1.524 1.758z"/></g></svg>