<svg width="34" height="50" xmlns="http://www.w3.org/2000/svg"><g fill="#92278F"><path d="M33.085 15.99a2.326 2.326 0 0 0-1.324-.49.972.972 0 0 0-.117-.008h-8.837l6.551-11.977a2.366 2.366 0 0 0 .198-1.804A2.352 2.352 0 0 0 27.38.004.988.988 0 0 0 27.29 0H11.659a2.355 2.355 0 0 0-2.237 1.614L.163 25.281c-.23.59-.216 1.234.036 1.814a2.348 2.348 0 0 0 2.073 1.418.967.967 0 0 0 .088.004h8.926l-4.875 18.51a2.374 2.374 0 0 0 1.68 2.895 2.357 2.357 0 0 0 2.51-.902L33.51 19.313a2.38 2.38 0 0 0-.424-3.323zm-1.112 2.128L9.055 47.838a.926.926 0 0 0-.025.033.42.42 0 0 1-.444.162.417.417 0 0 1-.296-.508l5.198-19.734a.98.98 0 0 0-.17-.846.97.97 0 0 0-.77-.38H2.426c-.072-.006-.146-.004-.217-.032a.416.416 0 0 1-.236-.54l9.267-23.69a.983.983 0 0 0 .021-.058.418.418 0 0 1 .398-.292h15.566a.955.955 0 0 0 .067.003.416.416 0 0 1 .363.619l-7.342 13.423a.98.98 0 0 0 .015.968.97.97 0 0 0 .836.48h10.39c.03.002.06.004.09.004a.417.417 0 0 1 .328.669z"/><path d="M16.02 3h-3.04A.99.99 0 0 0 12 4c0 .552.439 1 .98 1h3.04A.99.99 0 0 0 17 4a.99.99 0 0 0-.98-1zm2.993 0h-.026A.993.993 0 0 0 18 4c0 .552.442 1 .987 1h.026A.993.993 0 0 0 20 4c0-.552-.442-1-.987-1z"/></g></svg>