<svg width="61" height="53" xmlns="http://www.w3.org/2000/svg"><path d="M59.983 51.049V13h-12.2v38.049h-3.05V20.805h-12.2v30.244h-3.05v-22.44h-12.2v22.44h-3.05V37.39h-12.2v13.66H1.017c-.562 0-1.017.436-1.017.975 0 .54.455.976 1.017.976h58.966c.562 0 1.017-.436 1.017-.976s-.455-.975-1.017-.975zm-55.916 0V39.34H12.2v11.71H4.067zm15.25 0V30.56h8.133v20.488h-8.133zm15.25 0V22.756H42.7V51.05h-8.133zm15.25 0V14.95h8.133v36.1h-8.133zM8.026 25c.174 0 .351-.042.512-.132L45.721 4.2l-2.327 4.925a.971.971 0 0 0 .509 1.306c.137.062.281.09.424.09.39 0 .762-.216.934-.58l3.652-7.727c.011-.025.009-.051.018-.077a.93.93 0 0 0 .045-.158c.005-.028.022-.05.024-.079 0-.012-.004-.022-.003-.033.002-.038-.002-.073-.004-.11a.958.958 0 0 0-.025-.16c-.008-.037-.01-.076-.023-.112-.013-.036-.034-.066-.05-.1-.014-.023-.014-.05-.028-.073-.015-.024-.04-.038-.056-.06-.021-.031-.038-.064-.063-.091-.027-.03-.06-.05-.092-.077a1.054 1.054 0 0 0-.13-.1c-.033-.02-.061-.041-.096-.058-.011-.005-.018-.015-.029-.02-.025-.01-.053-.009-.079-.018a1.023 1.023 0 0 0-.17-.043c-.027-.005-.048-.02-.076-.022L39.298.005c-.569-.055-1.065.346-1.12.886-.055.543.359 1.026.921 1.078l5.594.522-37.18 20.667a.967.967 0 0 0-.375 1.349c.19.316.534.493.888.493z" fill="#92278F"/></svg>