<svg width="57" height="57" xmlns="http://www.w3.org/2000/svg"><g fill="#92278F"><path d="M25.333 33.6H20.59c.37-.955 1.137-1.381 2.245-1.998C24.592 30.624 27 29.284 27 25.1c0-2.812-2.243-5.1-5-5.1s-5 2.288-5 5.1c0 .939.746 1.7 1.667 1.7.92 0 1.666-.761 1.666-1.7 0-.937.748-1.7 1.667-1.7s1.689.763 1.689 1.7c0 2.166-.885 2.646-2.451 3.517C19.449 29.612 17 30.975 17 35.3c0 .939.746 1.7 1.667 1.7h6.666c.92 0 1.667-.761 1.667-1.7s-.746-1.7-1.667-1.7zm16.042-6.8H39.75v-5.1c0-.939-.728-1.7-1.625-1.7s-1.625.761-1.625 1.7v5.1h-3.25v-5.1c0-.939-.728-1.7-1.625-1.7S30 20.761 30 21.7v6.8c0 .939.728 1.7 1.625 1.7H36.5v5.1c0 .939.728 1.7 1.625 1.7s1.625-.761 1.625-1.7v-5.1h1.625c.897 0 1.625-.761 1.625-1.7s-.728-1.7-1.625-1.7z"/><path d="M55.33 26.941c-.922 0-1.648.748-1.648 1.67 0 13.812-11.359 25.071-25.293 25.071-7.907 0-15.34-3.82-20.04-10.064 3.525 0 3.801.042 4.245-.245 4.222 4.534 9.884 6.947 15.795 6.947 11.967 0 21.931-9.925 21.931-21.931a21.27 21.27 0 0 0-3.482-11.69h5.152a1.67 1.67 0 0 0 1.67-1.67V8.35a1.67 1.67 0 0 0-3.34 0v1.76C44.952 3.779 36.925 0 28.39 0 12.705 0 0 12.688 0 28.389c0 .922.748 1.67 1.67 1.67.922 0 1.648-.748 1.648-1.67 0-13.812 11.259-25.071 25.07-25.071 8.03 0 15.544 3.82 20.26 10.064-3.614 0-3.704-.1-4.238.243-4.277-4.53-10.03-6.945-16.021-6.945-11.97 0-21.71 9.738-21.71 21.709 0 4.276 1.23 8.382 3.518 11.912H5.01a1.67 1.67 0 0 0-1.67 1.67v6.68a1.67 1.67 0 0 0 3.34 0v-1.746A28.349 28.349 0 0 0 28.389 57C43.963 57 57 44.418 57 28.611a1.67 1.67 0 0 0-1.67-1.67zM9.997 28.39c0-10.13 8.263-18.392 18.392-18.392 10.251 0 18.614 8.263 18.614 18.392 0 10.077-8.537 18.614-18.614 18.614-10.13 0-18.392-8.363-18.392-18.614z"/></g></svg>