<svg width="130" height="198" xmlns="http://www.w3.org/2000/svg"><g fill="#E8EAEC" opacity=".254"><path d="M65 0C29.16 0 0 29.089 0 64.844 0 99.207 59.071 192.188 61.586 196.13a4.05 4.05 0 0 0 6.828 0C70.93 192.188 130 99.206 130 64.844 130 29.089 100.841 0 65 0zm0 186.333c-5.346-8.632-16.195-26.503-26.938-46.303C18.458 103.898 8.096 77.9 8.096 64.844c0-31.3 25.527-56.762 56.904-56.762 31.378 0 56.904 25.463 56.904 56.762 0 13.055-10.362 39.054-29.965 75.186C81.195 159.83 70.346 177.7 65 186.333z"/><path d="M65.5 31C48.682 31 35 44.234 35 60.5 35 76.768 48.682 90 65.5 90 82.318 90 96 76.767 96 60.5 96 44.235 82.318 31 65.5 31zm0 51.015c-12.39 0-22.47-9.651-22.47-21.515S53.11 38.984 65.5 38.984c12.39 0 22.47 9.652 22.47 21.516 0 11.864-10.08 21.515-22.47 21.515z"/></g></svg>