<svg width="35" height="30" xmlns="http://www.w3.org/2000/svg"><path d="M11.301 15.77l15.762-9.556c.283-.171.575.206.331.428L14.386 18.545c-.457.42-.752.98-.835 1.589l-.443 3.233c-.059.431-.675.474-.796.056l-1.704-5.895c-.195-.672.09-1.39.693-1.757M.618 14.385l8.065 2.963 3.121 9.883c.2.633.986.867 1.508.447l4.496-3.608a1.358 1.358 0 0 1 1.635-.045l8.108 5.796c.558.399 1.349.098 1.489-.566l5.94-28.127c.152-.726-.572-1.33-1.274-1.064L.61 12.634a.931.931 0 0 0 .01 1.75" fill="#788089" fill-rule="evenodd"/></svg>