<svg width="104" height="75" xmlns="http://www.w3.org/2000/svg"><g fill="#92278F"><path d="M24.5 54C18.71 54 14 58.71 14 64.5S18.71 75 24.5 75 35 70.29 35 64.5 30.29 54 24.5 54zm0 17.5c-3.86 0-7-3.14-7-7s3.14-7 7-7 7 3.14 7 7-3.14 7-7 7zm59-17.5C77.71 54 73 58.71 73 64.5S77.71 75 83.5 75 94 70.29 94 64.5 89.29 54 83.5 54zm0 17.5c-3.86 0-7-3.14-7-7s3.14-7 7-7 7 3.14 7 7-3.14 7-7 7z"/><path d="M103.726 44.17L88.18 19.798A1.724 1.724 0 0 0 86.727 19h-19c-.955 0-1.727.78-1.727 1.74v43.52c0 .962.772 1.74 1.727 1.74h6.91v-3.482h-5.183V22.482h16.33l14.762 23.14V62.52h-8.637V66h10.364c.955 0 1.727-.778 1.727-1.74V45.11c0-.332-.095-.661-.274-.942z"/><path d="M76.5 41.546V29.455h14V26H74.75c-.968 0-1.75.774-1.75 1.727v15.546c0 .955.782 1.727 1.75 1.727H101v-3.455H76.5zM67.275 7H1.725A1.73 1.73 0 0 0 0 8.735v55.53C0 65.225.773 66 1.725 66h13.8v-3.47H3.45V10.47h62.1v52.06H32.775V66h34.5C68.23 66 69 65.224 69 64.265V8.735A1.73 1.73 0 0 0 67.275 7z"/><path d="M2 56h10v3H2zm34 0h29v3H36zm59 0h7v3h-7zM7 14h61v3H7zm16 49h3v3h-3zm58 0h3v3h-3zM7 0h24v3H7zM0 0h3v3H0z"/></g></svg>